<svg width="691px" height="633px" viewBox="0 0 691 633" version="1.1" xmlns="http://www.w3.org/2000/svg" xmlns:xlink="http://www.w3.org/1999/xlink">
    <title>baloons NEW</title>
    <desc>Created with Sketch.</desc>
    <defs></defs>
    <g id="baloons-NEW" stroke="none" stroke-width="1" fill="none" fill-rule="evenodd">
        <g id="Page-1" transform="translate(234.500000, 304.000000) scale(-1, 1) translate(-234.500000, -304.000000) translate(10.000000, 0.000000)">
            <path d="M207.025,554.4375 C206.151,553.7774 204.805,553.2187 203.613,553.0524 L203.211,553.2817 C203.211,553.2817 205.969,554.2473 207.181,554.7567 L207.025,554.4375 Z" id="Fill-1" fill="#FFFFFF"></path>
            <path d="M215.437,546.4032 L205.686,574.1847" id="Stroke-2" stroke="#000000" stroke-linecap="round" stroke-linejoin="round"></path>
            <path d="M207.394,562.0612 C207.394,562.0612 204.836,565.9819 204.333,566.5288 C203.83,567.0756 203.359,567.3058 202.887,567.4892 C202.416,567.6725 197.255,568.9297 196.545,569.1053 C195.836,569.2809 195.826,570.5405 196.715,570.425 C197.603,570.3096 202.678,569.5807 203.373,569.4566 C204.098,569.3271 205.101,568.7201 205.528,568.3335 C205.954,567.9469 209.405,564.4888 209.405,564.4888 L207.394,562.0612 Z" id="Fill-3" fill="#FFFFFF"></path>
            <path d="M211.267,558.4479 C212.2,558.3563 213.101,558.9399 214.156,560.471 C215.212,562.0021 214.766,564.1695 215.64,565.6802 C216.515,567.1909 216.943,567.0933 218.675,567.992 C220.659,569.0219 221.769,571.8892 221.769,571.8892 L213.059,573.0869 C213.059,573.0869 210.96,568.6826 209.469,567.3232 C207.617,565.635 207.205,564.3505 207.256,562.9668 C207.299,561.7929 207.647,560.2195 207.647,560.2195 C207.647,560.2195 210.331,558.5398 211.267,558.4479 Z" id="Fill-4" fill="#000000"></path>
            <path d="M206.211,561.7978 C206.682,561.791 207.046,561.9378 207.626,562.1208 C207.637,562.3431 207.675,562.9782 207.737,563.3187 C207.783,563.5746 207.834,563.861 208.019,563.9034 C208.31,563.9702 208.694,563.9543 209.074,563.876 C209.269,563.8359 209.369,563.6509 209.378,563.2796 C209.393,562.691 209.216,560.4342 209.553,559.7448 C209.89,559.0555 209.818,559.2685 209.818,559.2685 C209.818,559.2685 207.991,559.5999 207.199,559.2604 C206.407,558.921 206.211,561.7978 206.211,561.7978" id="Fill-5" fill="#FFFFFF"></path>
            <polygon id="Fill-6" fill="#000000" points="203.056 606.2937 245.251 607.592 248.658 600.5707 248.497 569.2918 204.548 569.4312 202.406 575.1342"></polygon>
            <path d="M202.288,558.6025 C192.945,557.3881 195.406,549.3749 206.536,554.4007 C214.76,558.1146 211.056,559.6393 207.765,559.3479" id="Fill-7" fill="#000000"></path>
            <path d="M201.775,558.1653 C202.032,558.6786 202.088,558.8431 202.234,559.1033 C202.384,559.3719 202.669,560.1435 202.971,560.5419 C203.354,561.049 204.608,561.9348 204.958,562.1251 C205.447,562.3913 205.891,562.3986 206.39,561.9271 C206.889,561.4557 207.03,561.1723 207.215,560.8516 C207.399,560.5309 207.634,559.479 207.459,558.8926 C207.206,558.041 206.638,557.4102 206.439,557.2633 C206.239,557.1165 206.043,557.0436 205.756,557.0704 C205.469,557.0972 205.15,556.94 204.992,556.7416 C204.834,556.5433 203.626,556.3372 202.899,556.7573 C202.173,557.1773 201.518,557.6521 201.775,558.1653 Z" id="Fill-8" fill="#FFFFFF"></path>
            <path d="M201.833,554.7087 C203.16,552.5394 204.956,552.364 206.154,553.2689 C207.352,554.1737 207.473,555.5927 207.566,556.7615" id="Fill-9" fill="#000000"></path>
            <path d="M211.495,558.6506 C213.003,558.5415 213.661,561.6571 212.606,565.3153 C211.551,568.9734 210.973,569.4479 210.973,569.4479 L208.742,569.378 C208.742,569.378 209.247,568.3601 209.655,566.2586 C210.062,564.1571 210.16,563.1838 210.098,562.1348 C210.037,561.0858 210.149,558.7481 211.495,558.6506 Z" id="Fill-10" fill="#FFFFFF"></path>
            <path d="M196.548,571.1607 C196.36,571.7643 195.161,573.1294 194.871,572.9255 C194.679,572.791 194.789,572.557 194.93,572.3207 C194.841,572.296 194.628,572.1552 194.504,572.0862 C194.458,572.1672 193.975,572.8236 193.769,573.2023 C193.663,573.3969 193.462,573.5067 193.316,573.4362 C193.24,573.3994 193.295,573.285 193.383,573.064 C193.586,572.5521 193.967,572.0118 194.121,571.7496 C193.744,571.4453 193.682,571.2637 193.977,570.7917 C194.338,570.2144 194.864,569.4455 196.887,569.0263 C196.916,569.0203 196.929,569.0283 196.93,569.0521 C197.224,569.0654 197.2,570.3514 197.2,570.3514 C196.929,570.3845 196.677,570.7461 196.548,571.1607 Z" id="Fill-11" fill="#FFFFFF"></path>
            <path d="M233.527,539.2143 L238.959,532.3573 C253.424,516.0485 272.74,488.426 284.836,474.115 C360.741,384.304 450.945,307.258 447.484,217.491 C443.323,109.577 380.887,2.229 225.014,1.542 C88.2301,0.94 8.1801,93.39 1.2793,209.932 C-5.0958,317.595 122.691,430.563 161.761,471.816 C181.535,492.695 212.529,538.6094 212.529,538.6094 L233.527,539.2143 Z" id="Fill-12" fill="#000000"></path>
            <path d="M207.542,559.3313 C207.48,559.8082 207.259,560.5078 207.139,560.6988 C207.139,560.6988 207.659,560.793 208.042,560.9678 C208.425,561.1426 208.616,561.7799 208.657,562.093 C208.738,562.7059 208.623,563.9353 208.623,563.9353 L209.436,563.9525 L209.671,560.7717 L209.998,558.7896 C209.998,558.7896 207.603,558.8545 207.542,559.3313 Z" id="Fill-13" fill-opacity="0.2" fill="#000000"></path>
            <path d="M11.157,157.747 C-1.1501,179.403 -1.059,194.644 1.117,214.593 C10.0159,296.176 94.7611,404.065 164.153,473.985 L208.033,514.9587 L225.193,497.799 C225.193,497.799 24.6382,134.025 11.157,157.747 Z" id="Fill-14" fill="#2F9B47"></path>
            <path d="M46.9446,77.923 C38.6792,86.421 -6.6179,130.292 6.8697,212.209 C19.7681,290.547 114.5,410.896 169.821,469.535 L204.904,499.437 L215.333,490.901 C215.333,490.901 70.0472,54.17 46.9446,77.923 Z" id="Fill-15" fill="#000000"></path>
            <path d="M106.615,27.282 C79.9104,41.665 19.1296,77.845 18.1174,159.191 C16.9228,255.194 141.049,420.861 176.099,466.649 L194.901,499.494 L207.45,491.045 L106.615,27.282" id="Fill-16" fill="#89CC53"></path>
            <path d="M207.583,563.6155 L208.719,565.1753 C207.809,566.0855 206.251,567.6394 205.692,568.178 C205.624,567.7565 205.505,566.9358 205.507,566.3838 C205.509,565.8862 205.563,565.2094 205.766,564.5144 C206.571,563.3227 207.394,562.0612 207.394,562.0612 L207.583,563.6155 Z" id="Fill-17" fill-opacity="0.2" fill="#000000"></path>
            <path d="M203.382,572.4887 C202.572,573.2178 201.829,573.5208 201.914,574.1623 C201.999,574.8038 202.06,575.422 202.507,575.3464 C202.954,575.2709 203.029,574.1456 203.029,574.1456 C203.029,574.1456 203.02,573.628 203.382,572.4887 Z" id="Fill-18" fill="#FFFFFF"></path>
            <path d="M157.317,11.074 C133.623,13.872 46.0054,31.671 51.3233,126.272 C57.9866,244.806 146.928,399.429 184.302,463.504 L199.353,494.825 L212.256,488.907 C212.256,488.907 179.554,8.448 157.317,11.074 Z" id="Fill-19" fill="#000000"></path>
            <path d="M194.935,572.3206 C194.935,572.3206 195.189,572.0445 195.29,571.9284 C195.39,571.8124 195.503,571.6098 195.426,571.4823 C195.35,571.3548 194.988,571.5339 194.84,571.6897 C194.691,571.8456 194.509,572.0805 194.509,572.0805 C194.637,572.1745 194.789,572.2557 194.935,572.3206" id="Fill-20" fill-opacity="0.2" fill="#000000"></path>
            <path d="M171.674,6.054 C143.624,10.763 95.0728,11.139 98.5851,100.202 C102.892,209.409 156.423,357.883 195.833,461.809 L215.054,517.4283 L228.261,515.384 L209.314,460.046 C209.314,460.046 182.943,4.162 171.674,6.054 Z" id="Fill-21" fill="#3DB8AD"></path>
            <path d="M235.27,542.3126 L244.952,571.5012" id="Stroke-22" stroke="#000000" stroke-linecap="round" stroke-linejoin="round"></path>
            <path d="M217.63,541.6857 L211.403,571.6487" id="Stroke-23" stroke="#000000" stroke-linecap="round" stroke-linejoin="round"></path>
            <path d="M233.398,547.1818 L240.803,570.7305" id="Stroke-24" stroke="#000000" stroke-linecap="round" stroke-linejoin="round"></path>
            <polygon id="Stroke-25" stroke="#000000" stroke-linecap="round" stroke-linejoin="round" points="215.448 546.3785 217.681 541.6989 235.25 542.1097 233.328 547.1526"></polygon>
            <path d="M217.699,541.6294 L215.528,529.3898" id="Stroke-26" stroke="#000000" stroke-linecap="round" stroke-linejoin="round"></path>
            <path d="M446.864,188.642 C463.463,261.826 375.254,368.292 283.737,475.399 L241.414,502.795 L390.936,121.46 C390.936,121.46 432.627,125.875 446.864,188.642 Z" id="Fill-27" fill="#F28825"></path>
            <path d="M215.543,546.3222 L211.574,535.1244" id="Stroke-28" stroke="#000000" stroke-linecap="round" stroke-linejoin="round"></path>
            <path d="M329.392,38.402 L251.166,482.744 L268.176,487.372 C336.159,400.742 448.051,271.177 446.763,187.486 C445.287,91.629 399.905,61.9 329.392,38.402 Z" id="Fill-29" fill="#000000"></path>
            <path d="M235.37,542.2002 L239.23,531.2696" id="Stroke-30" stroke="#000000" stroke-linecap="round" stroke-linejoin="round"></path>
            <path d="M260.116,489.046 C314.885,404.942 432.043,259.509 428.857,144.119 C427.127,81.473 372.642,33.397 305.777,14.276 C270.509,4.19 238.824,487.436 238.824,487.436 C238.824,487.436 206.577,571.263 260.116,489.046 Z" id="Fill-31" fill="#E13030"></path>
            <path d="M233.324,547.2571 L233.439,537.983" id="Stroke-32" stroke="#000000" stroke-linecap="round" stroke-linejoin="round"></path>
            <polygon id="Stroke-33" stroke="#000000" stroke-linecap="round" stroke-linejoin="round" points="233.486 539.0391 212.709 538.3525 215.908 530.6752 239.115 531.2631"></polygon>
            <path d="M319.399,16.788 C384.215,44.66 395.25,82.257 396.472,108.492 C402.284,233.291 273.772,438.874 256.995,483.401 L241.346,481.795 C241.346,481.795 250.615,-12.79 319.399,16.788 Z" id="Fill-34" fill="#000000"></path>
            <polygon id="Fill-35" fill="#000000" points="219.797 543.4435 219.863 548.4508 229.093 548.6793 231.41 546.1093 231.473 540.4883 221.519 540.3561"></polygon>
            <path d="M224.91,0.896 C240.903,-0.988 255.876,0.083 269.836,4.265 C286.193,4.259 305.508,11.534 314.121,14.988 C333.048,23.159 345.569,39.966 347.668,92.087 C351.042,175.854 289.953,348.345 243.742,481.691 L223.992,478.382 L224.91,0.896 Z" id="Fill-36" fill="#3394D7"></path>
            <path d="M172.134,5.94 C165.122,8.732 160.067,29.999 158.798,54.803 C152.594,176.028 195.127,379.183 209.159,460.302 C223.985,546.0045 224.208,504.968 224.208,504.968 L225.263,459.766 L224.996,1.002 C224.996,1.002 192.359,-2.113 172.134,5.94 Z" id="Fill-37" fill="#000000"></path>
            <path d="M163.702,474.468 C180.586,452.867 269.242,454.543 284.032,475.195 C272.709,490.413 253.084,516.4321 238.959,532.3573 L233.528,539.1236 L222.157,538.8868 L212.529,538.6094 C212.529,538.6094 181.145,498.213 163.702,474.468 Z" id="Fill-38" fill="#000000"></path>
        </g>
        <g id="Page-1-Copy" transform="translate(479.000000, 38.000000)">
            <path d="M48.9411448,124.019147 L46.7259955,130.324817" id="Stroke-2" stroke="#000000" stroke-width="0.5" stroke-linecap="round" stroke-linejoin="round"></path>
            <path d="M47.1140045,127.573101 C47.1140045,127.573101 46.5328998,128.462997 46.4186325,128.587129 C46.3043653,128.711238 46.1973675,128.763487 46.0901425,128.805114 C45.9831448,128.846719 44.8107127,129.13207 44.6494209,129.171927 C44.4883563,129.211783 44.4860846,129.497679 44.6880401,129.471464 C44.8897684,129.445271 46.0426637,129.27983 46.2005479,129.251663 C46.3652472,129.222269 46.5931002,129.084496 46.6901024,128.996748 C46.7868775,128.909 47.5708463,128.124103 47.5708463,128.124103 L47.1140045,127.573101 Z" id="Fill-3" fill="#FFFFFF"></path>
            <path d="M47.9938396,126.752977 C48.2057906,126.732187 48.4104722,126.864648 48.6501381,127.212168 C48.8900312,127.559687 48.7887127,128.05163 48.9872606,128.394519 C49.1860356,128.737408 49.283265,128.715256 49.6767261,128.919237 C50.1274343,129.152997 50.3795947,129.803799 50.3795947,129.803799 L48.400931,130.075645 C48.400931,130.075645 47.924098,129.075985 47.5853853,128.767437 C47.1646637,128.38426 47.071069,128.092712 47.0826548,127.778649 C47.0924232,127.512204 47.1714788,127.155084 47.1714788,127.155084 C47.1714788,127.155084 47.7812071,126.773836 47.9938396,126.752977 Z" id="Fill-4" fill="#000000"></path>
            <path d="M46.8452606,127.513316 C46.9522584,127.511773 47.0349488,127.545093 47.1667082,127.586629 C47.1692071,127.637085 47.1778396,127.781236 47.1919243,127.858521 C47.2023742,127.916603 47.2139599,127.981609 47.2559866,127.991232 C47.3220935,128.006394 47.4093274,128.002785 47.4956526,127.985013 C47.539951,127.975912 47.5626682,127.933921 47.5647127,127.849646 C47.5681203,127.716049 47.5279109,127.203815 47.6044677,127.047339 C47.6810245,126.890887 47.6646682,126.939232 47.6646682,126.939232 C47.6646682,126.939232 47.2496258,127.014451 47.069706,126.937393 C46.8897862,126.860359 46.8452606,127.513316 46.8452606,127.513316" id="Fill-5" fill="#FFFFFF"></path>
            <polygon id="Fill-6" fill="#000000" points="46.1285345 137.612715 55.7140356 137.907395 56.4880089 136.313744 56.4514343 129.214257 46.4674744 129.245897 45.9808731 130.540328"></polygon>
            <path d="M45.9540668,126.788067 C43.8316036,126.512431 44.3906726,124.693645 46.9190913,125.834369 C48.7873497,126.677327 47.9459065,127.023394 47.1982851,126.957254" id="Fill-7" fill="#000000"></path>
            <path d="M45.8375278,126.688835 C45.8959109,126.80534 45.9086325,126.842677 45.9417996,126.901736 C45.9758753,126.962701 46.0406192,127.137834 46.1092249,127.22826 C46.1962316,127.343359 46.4811047,127.544412 46.5606147,127.587605 C46.6717016,127.648025 46.7725657,127.649682 46.8859243,127.542664 C46.9992829,127.435669 47.031314,127.371344 47.0733408,127.298554 C47.1151403,127.225763 47.1685256,126.98701 47.1287706,126.853913 C47.0712962,126.660622 46.9422628,126.517447 46.8970557,126.484104 C46.8516214,126.450785 46.8070958,126.434238 46.7418976,126.440321 C46.6766993,126.446404 46.6042316,126.410724 46.5683385,126.365692 C46.5324454,126.320683 46.2580223,126.273904 46.0928686,126.369256 C45.9279421,126.464585 45.7791448,126.572352 45.8375278,126.688835 Z" id="Fill-8" fill="#FFFFFF"></path>
            <path d="M45.8507038,125.904277 C46.1521604,125.411903 46.5601604,125.372092 46.8323118,125.577481 C47.1044633,125.782846 47.131951,126.104922 47.153078,126.370209" id="Fill-9" fill="#000000"></path>
            <path d="M48.0456347,126.798985 C48.3882094,126.774222 48.5376882,127.481381 48.2980223,128.311696 C48.0583563,129.141989 47.9270512,129.249688 47.9270512,129.249688 L47.4202316,129.233822 C47.4202316,129.233822 47.5349532,129.002786 47.6276392,128.525801 C47.720098,128.048815 47.7423608,127.827902 47.7282762,127.589807 C47.7144187,127.351711 47.7398619,126.821115 48.0456347,126.798985 Z" id="Fill-10" fill="#FFFFFF"></path>
            <path d="M44.6501024,129.638448 C44.6073942,129.77545 44.3350156,130.085291 44.2691359,130.039012 C44.2255189,130.008484 44.2505078,129.955372 44.282539,129.901738 C44.2623207,129.896132 44.2139332,129.864174 44.1857639,129.848513 C44.175314,129.866897 44.0655902,130.015883 44.0187929,130.101838 C43.9947127,130.146007 43.9490512,130.170929 43.9158842,130.154927 C43.8986192,130.146574 43.9111136,130.120609 43.9311047,130.070447 C43.9772205,129.95426 44.0637728,129.831626 44.0987572,129.772113 C44.0131136,129.703045 43.999029,129.661827 44.0660445,129.554695 C44.1480535,129.423663 44.2675457,129.249143 44.7271136,129.153996 C44.7337016,129.152634 44.7366548,129.15445 44.736882,129.159852 C44.8036704,129.16287 44.7982183,129.454759 44.7982183,129.454759 C44.7366548,129.462271 44.6794076,129.544345 44.6501024,129.638448 Z" id="Fill-11" fill="#FFFFFF"></path>
            <path d="M53.0506771,122.387456 L54.2846726,120.831098 C57.5707082,117.129429 61.9587528,110.859849 64.7066192,107.611628 C81.9500713,87.2268947 102.441849,69.7394803 101.655608,49.3647336 C100.710347,24.8710954 86.5266682,0.505924342 51.1167661,0.349993421 C20.0433635,0.213355263 1.85828552,21.1970724 0.29062049,47.6490395 C-1.15762049,72.0857072 27.8718976,97.7264704 36.7474878,107.089816 C41.2395768,111.828799 48.2805301,122.25016 48.2805301,122.25016 L53.0506771,122.387456 Z" id="Fill-12" fill="#000000"></path>
            <path d="M47.1476258,126.953486 C47.1335412,127.06173 47.0833363,127.22052 47.0560757,127.263872 C47.0560757,127.263872 47.1742049,127.285253 47.2612116,127.324928 C47.3482183,127.364603 47.391608,127.509254 47.400922,127.580319 C47.4193229,127.719431 47.3931982,127.998473 47.3931982,127.998473 L47.5778886,128.002377 L47.6312739,127.280419 L47.705559,126.830534 C47.705559,126.830534 47.1614833,126.845265 47.1476258,126.953486 Z" id="Fill-13" fill-opacity="0.2" fill="#000000"></path>
            <path d="M2.53455234,35.8044178 C-0.261269933,40.7197599 -0.24057461,44.1790658 0.253750557,48.7069638 C2.27532695,67.2241579 21.5270205,91.7121217 37.290882,107.582122 L47.259167,116.882073 L51.1574298,112.987273 C51.1574298,112.987273 5.59709666,30.420148 2.53455234,35.8044178 Z" id="Fill-14" fill="#2F9B47"></path>
            <path d="M10.6644748,17.6864704 C8.78681158,19.6152928 -1.50339822,29.5728553 1.5606,48.1658586 C4.49074878,65.946523 26.0111359,93.2625789 38.57849,106.572089 L46.5483474,113.359056 L48.9175189,111.421609 C48.9175189,111.421609 15.9127269,12.2951645 10.6644748,17.6864704 Z" id="Fill-15" fill="#000000"></path>
            <path d="M24.2198886,6.19229605 C18.1533648,9.45685855 4.34569978,17.6687664 4.11575679,36.1321678 C3.84437773,57.9223224 32.0423118,95.5243717 40.0046726,105.917043 L44.275951,113.371993 L47.1267261,111.454293 L24.2198886,6.19229605" id="Fill-16" fill="#89CC53"></path>
            <path d="M47.1569399,127.925887 L47.4150067,128.27992 C47.2082806,128.486512 46.8543474,128.839206 46.7273586,128.961454 C46.7119109,128.865785 46.6848775,128.679507 46.6853318,128.554218 C46.6857862,128.441276 46.6980535,128.28766 46.7441693,128.129913 C46.9270423,127.859429 47.1140045,127.573101 47.1140045,127.573101 L47.1569399,127.925887 Z" id="Fill-17" fill-opacity="0.2" fill="#000000"></path>
            <path d="M35.7379376,2.51350658 C30.3553363,3.14857895 10.4511154,7.18848355 11.6591906,28.6604211 C13.1729024,55.5645197 33.377853,90.6598717 41.8681604,105.203211 L45.2873185,112.312253 L48.2185122,110.969023 C48.2185122,110.969023 40.7895501,1.91747368 35.7379376,2.51350658 Z" id="Fill-19" fill="#000000"></path>
            <path d="M38.9994388,1.37409868 C32.6272784,2.44291776 21.5978298,2.52825987 22.3957243,22.7432171 C23.3741292,47.5303322 35.5348463,81.230023 44.4876748,104.81849 L48.8541381,117.442608 L51.854392,116.978605 L47.5501737,104.418336 C47.5501737,104.418336 41.5594343,0.944664474 38.9994388,1.37409868 Z" id="Fill-21" fill="#3DB8AD"></path>
            <path d="M53.446637,123.090689 L55.6461114,129.715733" id="Stroke-22" stroke="#000000" stroke-width="0.5" stroke-linecap="round" stroke-linejoin="round"></path>
            <path d="M49.4393318,122.948399 L48.024735,129.749212" id="Stroke-23" stroke="#000000" stroke-width="0.5" stroke-linecap="round" stroke-linejoin="round"></path>
            <path d="M53.0213719,124.195869 L54.7035768,129.540804" id="Stroke-24" stroke="#000000" stroke-width="0.5" stroke-linecap="round" stroke-linejoin="round"></path>
            <polygon id="Stroke-25" stroke="#000000" stroke-width="0.5" stroke-linecap="round" stroke-linejoin="round" points="48.9436437 124.013541 49.4509176 122.951395 53.4420935 123.044636 53.0054699 124.189241"></polygon>
            <path d="M101.514762,42.8167697 C105.285581,59.4276118 85.2470111,83.5925921 64.4569577,107.903062 L54.8423786,114.121234 L88.8095145,27.5682237 C88.8095145,27.5682237 98.2805212,28.5703125 101.514762,42.8167697 Z" id="Fill-27" fill="#1D5C84"></path>
            <path d="M48.9652249,124.000763 L48.0635813,121.459157" id="Stroke-28" stroke="#000000" stroke-width="0.5" stroke-linecap="round" stroke-linejoin="round"></path>
            <path d="M74.8284722,8.71624342 L57.057755,109.570184 L60.9219421,110.620618 C76.3657416,90.9578882 101.784414,61.5500428 101.491817,42.5543882 C101.156512,20.7973717 90.8470156,14.0496711 74.8284722,8.71624342 Z" id="Fill-29" fill="#000000"></path>
            <path d="M53.4693541,123.065177 L54.3462361,120.584218" id="Stroke-30" stroke="#000000" stroke-width="0.5" stroke-linecap="round" stroke-linejoin="round"></path>
            <path d="M59.0909399,111.000572 C71.5328953,91.9111776 98.147853,58.9017138 97.4240846,32.7112204 C97.031078,18.492227 84.6536392,7.58024013 69.4638174,3.24027632 C61.4519332,0.951019737 54.2540045,110.635145 54.2540045,110.635145 C54.2540045,110.635145 46.9284053,129.661668 59.0909399,111.000572 Z" id="Fill-31" fill="#2872BC"></path>
            <polygon id="Stroke-33" stroke="#000000" stroke-width="0.5" stroke-linecap="round" stroke-linejoin="round" points="53.041363 122.34769 48.3214209 122.19185 49.0481425 120.449305 54.3201114 120.582743"></polygon>
            <path d="M72.5583474,3.81043421 C87.2826949,10.1366447 89.7895323,18.6701743 90.0671359,24.6248289 C91.3874566,52.9509178 62.1931938,99.6128487 58.3819376,109.719306 L54.826931,109.354786 C54.826931,109.354786 56.9325835,-2.90299342 72.5583474,3.81043421 Z" id="Fill-34" fill="#000000"></path>
            <polygon id="Fill-35" fill="#000000" points="49.9316125 123.347373 49.9466058 124.483899 52.0433987 124.535762 52.569755 123.95244 52.5840668 122.676621 50.3228018 122.646615"></polygon>
            <path d="M51.0931403,0.203368421 C54.726294,-0.22425 58.1277327,0.0188388158 61.2990468,0.968042763 C65.0148909,0.966680921 69.4027082,2.61791447 71.3593363,3.40188158 C75.6590111,5.25648355 78.5034254,9.07123026 78.9802584,20.9013257 C79.746735,39.9142303 65.8690557,79.065148 55.3712339,109.331181 L50.8845969,108.580125 L51.0931403,0.203368421 Z" id="Fill-36" fill="#3394D7"></path>
            <path d="M39.1039376,1.34822368 C37.5110111,1.98193421 36.3626592,6.80898355 36.0743786,12.4388388 C34.6650067,39.9537237 44.3272918,86.0645625 47.5149621,104.476441 C50.8830067,123.928653 50.9336659,114.614447 50.9336659,114.614447 L51.1733318,104.354783 L51.1126771,0.227427632 C51.1126771,0.227427632 43.6984811,-0.479595395 39.1039376,1.34822368 Z" id="Fill-37" fill="#000000"></path>
            <path d="M37.1884276,107.69175 C41.0239911,102.788891 61.1641069,103.169299 64.5239733,107.85676 C61.9517105,111.310845 57.4934699,117.216496 54.2846726,120.831098 L53.0509042,122.36687 L50.4677372,122.313122 L48.2805301,122.25016 C48.2805301,122.25016 41.15098,113.08124 37.1884276,107.69175 Z" id="Fill-38" fill="#000000"></path>
        </g>
        <g id="Page-1-Copy-2" transform="translate(640.000000, 213.000000) scale(-1, 1) translate(-640.000000, -213.000000) translate(589.000000, 144.000000)">
            <path d="M48.9411448,124.019147 L46.7259955,130.324817" id="Stroke-2" stroke="#000000" stroke-width="0.5" stroke-linecap="round" stroke-linejoin="round"></path>
            <path d="M47.1140045,127.573101 C47.1140045,127.573101 46.5328998,128.462997 46.4186325,128.587129 C46.3043653,128.711238 46.1973675,128.763487 46.0901425,128.805114 C45.9831448,128.846719 44.8107127,129.13207 44.6494209,129.171927 C44.4883563,129.211783 44.4860846,129.497679 44.6880401,129.471464 C44.8897684,129.445271 46.0426637,129.27983 46.2005479,129.251663 C46.3652472,129.222269 46.5931002,129.084496 46.6901024,128.996748 C46.7868775,128.909 47.5708463,128.124103 47.5708463,128.124103 L47.1140045,127.573101 Z" id="Fill-3" fill="#FFFFFF"></path>
            <path d="M47.9938396,126.752977 C48.2057906,126.732187 48.4104722,126.864648 48.6501381,127.212168 C48.8900312,127.559687 48.7887127,128.05163 48.9872606,128.394519 C49.1860356,128.737408 49.283265,128.715256 49.6767261,128.919237 C50.1274343,129.152997 50.3795947,129.803799 50.3795947,129.803799 L48.400931,130.075645 C48.400931,130.075645 47.924098,129.075985 47.5853853,128.767437 C47.1646637,128.38426 47.071069,128.092712 47.0826548,127.778649 C47.0924232,127.512204 47.1714788,127.155084 47.1714788,127.155084 C47.1714788,127.155084 47.7812071,126.773836 47.9938396,126.752977 Z" id="Fill-4" fill="#000000"></path>
            <path d="M46.8452606,127.513316 C46.9522584,127.511773 47.0349488,127.545093 47.1667082,127.586629 C47.1692071,127.637085 47.1778396,127.781236 47.1919243,127.858521 C47.2023742,127.916603 47.2139599,127.981609 47.2559866,127.991232 C47.3220935,128.006394 47.4093274,128.002785 47.4956526,127.985013 C47.539951,127.975912 47.5626682,127.933921 47.5647127,127.849646 C47.5681203,127.716049 47.5279109,127.203815 47.6044677,127.047339 C47.6810245,126.890887 47.6646682,126.939232 47.6646682,126.939232 C47.6646682,126.939232 47.2496258,127.014451 47.069706,126.937393 C46.8897862,126.860359 46.8452606,127.513316 46.8452606,127.513316" id="Fill-5" fill="#FFFFFF"></path>
            <polygon id="Fill-6" fill="#000000" points="46.1285345 137.612715 55.7140356 137.907395 56.4880089 136.313744 56.4514343 129.214257 46.4674744 129.245897 45.9808731 130.540328"></polygon>
            <path d="M45.9540668,126.788067 C43.8316036,126.512431 44.3906726,124.693645 46.9190913,125.834369 C48.7873497,126.677327 47.9459065,127.023394 47.1982851,126.957254" id="Fill-7" fill="#000000"></path>
            <path d="M45.8375278,126.688835 C45.8959109,126.80534 45.9086325,126.842677 45.9417996,126.901736 C45.9758753,126.962701 46.0406192,127.137834 46.1092249,127.22826 C46.1962316,127.343359 46.4811047,127.544412 46.5606147,127.587605 C46.6717016,127.648025 46.7725657,127.649682 46.8859243,127.542664 C46.9992829,127.435669 47.031314,127.371344 47.0733408,127.298554 C47.1151403,127.225763 47.1685256,126.98701 47.1287706,126.853913 C47.0712962,126.660622 46.9422628,126.517447 46.8970557,126.484104 C46.8516214,126.450785 46.8070958,126.434238 46.7418976,126.440321 C46.6766993,126.446404 46.6042316,126.410724 46.5683385,126.365692 C46.5324454,126.320683 46.2580223,126.273904 46.0928686,126.369256 C45.9279421,126.464585 45.7791448,126.572352 45.8375278,126.688835 Z" id="Fill-8" fill="#FFFFFF"></path>
            <path d="M45.8507038,125.904277 C46.1521604,125.411903 46.5601604,125.372092 46.8323118,125.577481 C47.1044633,125.782846 47.131951,126.104922 47.153078,126.370209" id="Fill-9" fill="#000000"></path>
            <path d="M48.0456347,126.798985 C48.3882094,126.774222 48.5376882,127.481381 48.2980223,128.311696 C48.0583563,129.141989 47.9270512,129.249688 47.9270512,129.249688 L47.4202316,129.233822 C47.4202316,129.233822 47.5349532,129.002786 47.6276392,128.525801 C47.720098,128.048815 47.7423608,127.827902 47.7282762,127.589807 C47.7144187,127.351711 47.7398619,126.821115 48.0456347,126.798985 Z" id="Fill-10" fill="#FFFFFF"></path>
            <path d="M44.6501024,129.638448 C44.6073942,129.77545 44.3350156,130.085291 44.2691359,130.039012 C44.2255189,130.008484 44.2505078,129.955372 44.282539,129.901738 C44.2623207,129.896132 44.2139332,129.864174 44.1857639,129.848513 C44.175314,129.866897 44.0655902,130.015883 44.0187929,130.101838 C43.9947127,130.146007 43.9490512,130.170929 43.9158842,130.154927 C43.8986192,130.146574 43.9111136,130.120609 43.9311047,130.070447 C43.9772205,129.95426 44.0637728,129.831626 44.0987572,129.772113 C44.0131136,129.703045 43.999029,129.661827 44.0660445,129.554695 C44.1480535,129.423663 44.2675457,129.249143 44.7271136,129.153996 C44.7337016,129.152634 44.7366548,129.15445 44.736882,129.159852 C44.8036704,129.16287 44.7982183,129.454759 44.7982183,129.454759 C44.7366548,129.462271 44.6794076,129.544345 44.6501024,129.638448 Z" id="Fill-11" fill="#FFFFFF"></path>
            <path d="M53.0506771,122.387456 L54.2846726,120.831098 C57.5707082,117.129429 61.9587528,110.859849 64.7066192,107.611628 C81.9500713,87.2268947 102.441849,69.7394803 101.655608,49.3647336 C100.710347,24.8710954 86.5266682,0.505924342 51.1167661,0.349993421 C20.0433635,0.213355263 1.85828552,21.1970724 0.29062049,47.6490395 C-1.15762049,72.0857072 27.8718976,97.7264704 36.7474878,107.089816 C41.2395768,111.828799 48.2805301,122.25016 48.2805301,122.25016 L53.0506771,122.387456 Z" id="Fill-12" fill="#000000"></path>
            <path d="M47.1476258,126.953486 C47.1335412,127.06173 47.0833363,127.22052 47.0560757,127.263872 C47.0560757,127.263872 47.1742049,127.285253 47.2612116,127.324928 C47.3482183,127.364603 47.391608,127.509254 47.400922,127.580319 C47.4193229,127.719431 47.3931982,127.998473 47.3931982,127.998473 L47.5778886,128.002377 L47.6312739,127.280419 L47.705559,126.830534 C47.705559,126.830534 47.1614833,126.845265 47.1476258,126.953486 Z" id="Fill-13" fill-opacity="0.2" fill="#000000"></path>
            <path d="M2.53455234,35.8044178 C-0.261269933,40.7197599 -0.24057461,44.1790658 0.253750557,48.7069638 C2.27532695,67.2241579 21.5270205,91.7121217 37.290882,107.582122 L47.259167,116.882073 L51.1574298,112.987273 C51.1574298,112.987273 5.59709666,30.420148 2.53455234,35.8044178 Z" id="Fill-14" fill="#5856D6"></path>
            <path d="M10.6644748,17.6864704 C8.78681158,19.6152928 -1.50339822,29.5728553 1.5606,48.1658586 C4.49074878,65.946523 26.0111359,93.2625789 38.57849,106.572089 L46.5483474,113.359056 L48.9175189,111.421609 C48.9175189,111.421609 15.9127269,12.2951645 10.6644748,17.6864704 Z" id="Fill-15" fill="#000000"></path>
            <path d="M24.2198886,6.19229605 C18.1533648,9.45685855 4.34569978,17.6687664 4.11575679,36.1321678 C3.84437773,57.9223224 32.0423118,95.5243717 40.0046726,105.917043 L44.275951,113.371993 L47.1267261,111.454293 L24.2198886,6.19229605" id="Fill-16" fill="#8256D6"></path>
            <path d="M47.1569399,127.925887 L47.4150067,128.27992 C47.2082806,128.486512 46.8543474,128.839206 46.7273586,128.961454 C46.7119109,128.865785 46.6848775,128.679507 46.6853318,128.554218 C46.6857862,128.441276 46.6980535,128.28766 46.7441693,128.129913 C46.9270423,127.859429 47.1140045,127.573101 47.1140045,127.573101 L47.1569399,127.925887 Z" id="Fill-17" fill-opacity="0.2" fill="#000000"></path>
            <path d="M35.7379376,2.51350658 C30.3553363,3.14857895 10.4511154,7.18848355 11.6591906,28.6604211 C13.1729024,55.5645197 33.377853,90.6598717 41.8681604,105.203211 L45.2873185,112.312253 L48.2185122,110.969023 C48.2185122,110.969023 40.7895501,1.91747368 35.7379376,2.51350658 Z" id="Fill-19" fill="#000000"></path>
            <path d="M38.9994388,1.37409868 C32.6272784,2.44291776 21.5978298,2.52825987 22.3957243,22.7432171 C23.3741292,47.5303322 35.5348463,81.230023 44.4876748,104.81849 L48.8541381,117.442608 L51.854392,116.978605 L47.5501737,104.418336 C47.5501737,104.418336 41.5594343,0.944664474 38.9994388,1.37409868 Z" id="Fill-21" fill="#C834D6"></path>
            <path d="M53.446637,123.090689 L55.6461114,129.715733" id="Stroke-22" stroke="#000000" stroke-width="0.5" stroke-linecap="round" stroke-linejoin="round"></path>
            <path d="M49.4393318,122.948399 L48.024735,129.749212" id="Stroke-23" stroke="#000000" stroke-width="0.5" stroke-linecap="round" stroke-linejoin="round"></path>
            <path d="M53.0213719,124.195869 L54.7035768,129.540804" id="Stroke-24" stroke="#000000" stroke-width="0.5" stroke-linecap="round" stroke-linejoin="round"></path>
            <polygon id="Stroke-25" stroke="#000000" stroke-width="0.5" stroke-linecap="round" stroke-linejoin="round" points="48.9436437 124.013541 49.4509176 122.951395 53.4420935 123.044636 53.0054699 124.189241"></polygon>
            <path d="M101.514762,42.8167697 C105.285581,59.4276118 85.2470111,83.5925921 64.4569577,107.903062 L54.8423786,114.121234 L88.8095145,27.5682237 C88.8095145,27.5682237 98.2805212,28.5703125 101.514762,42.8167697 Z" id="Fill-27" fill="#E13030"></path>
            <path d="M48.9652249,124.000763 L48.0635813,121.459157" id="Stroke-28" stroke="#000000" stroke-width="0.5" stroke-linecap="round" stroke-linejoin="round"></path>
            <path d="M74.8284722,8.71624342 L57.057755,109.570184 L60.9219421,110.620618 C76.3657416,90.9578882 101.784414,61.5500428 101.491817,42.5543882 C101.156512,20.7973717 90.8470156,14.0496711 74.8284722,8.71624342 Z" id="Fill-29" fill="#000000"></path>
            <path d="M53.4693541,123.065177 L54.3462361,120.584218" id="Stroke-30" stroke="#000000" stroke-width="0.5" stroke-linecap="round" stroke-linejoin="round"></path>
            <path d="M59.0909399,111.000572 C71.5328953,91.9111776 98.147853,58.9017138 97.4240846,32.7112204 C97.031078,18.492227 84.6536392,7.58024013 69.4638174,3.24027632 C61.4519332,0.951019737 54.2540045,110.635145 54.2540045,110.635145 C54.2540045,110.635145 46.9284053,129.661668 59.0909399,111.000572 Z" id="Fill-31" fill="#FF9500"></path>
            <polygon id="Stroke-33" stroke="#000000" stroke-width="0.5" stroke-linecap="round" stroke-linejoin="round" points="53.041363 122.34769 48.3214209 122.19185 49.0481425 120.449305 54.3201114 120.582743"></polygon>
            <path d="M72.5583474,3.81043421 C87.2826949,10.1366447 89.7895323,18.6701743 90.0671359,24.6248289 C91.3874566,52.9509178 62.1931938,99.6128487 58.3819376,109.719306 L54.826931,109.354786 C54.826931,109.354786 56.9325835,-2.90299342 72.5583474,3.81043421 Z" id="Fill-34" fill="#000000"></path>
            <polygon id="Fill-35" fill="#000000" points="49.9316125 123.347373 49.9466058 124.483899 52.0433987 124.535762 52.569755 123.95244 52.5840668 122.676621 50.3228018 122.646615"></polygon>
            <path d="M51.0931403,0.203368421 C54.726294,-0.22425 58.1277327,0.0188388158 61.2990468,0.968042763 C65.0148909,0.966680921 69.4027082,2.61791447 71.3593363,3.40188158 C75.6590111,5.25648355 78.5034254,9.07123026 78.9802584,20.9013257 C79.746735,39.9142303 65.8690557,79.065148 55.3712339,109.331181 L50.8845969,108.580125 L51.0931403,0.203368421 Z" id="Fill-36" fill="#FFCC00"></path>
            <path d="M39.1039376,1.34822368 C37.5110111,1.98193421 36.3626592,6.80898355 36.0743786,12.4388388 C34.6650067,39.9537237 44.3272918,86.0645625 47.5149621,104.476441 C50.8830067,123.928653 50.9336659,114.614447 50.9336659,114.614447 L51.1733318,104.354783 L51.1126771,0.227427632 C51.1126771,0.227427632 43.6984811,-0.479595395 39.1039376,1.34822368 Z" id="Fill-37" fill="#000000"></path>
            <path d="M37.1884276,107.69175 C41.0239911,102.788891 61.1641069,103.169299 64.5239733,107.85676 C61.9517105,111.310845 57.4934699,117.216496 54.2846726,120.831098 L53.0509042,122.36687 L50.4677372,122.313122 L48.2805301,122.25016 C48.2805301,122.25016 41.15098,113.08124 37.1884276,107.69175 Z" id="Fill-38" fill="#000000"></path>
        </g>
    </g>
</svg>