<?xml version="1.0" encoding="UTF-8" standalone="no"?>
<!DOCTYPE svg PUBLIC "-//W3C//DTD SVG 1.1//EN" "http://www.w3.org/Graphics/SVG/1.1/DTD/svg11.dtd">
<svg width="100%" height="100%" viewBox="0 0 120 120" version="1.1" xmlns="http://www.w3.org/2000/svg" xmlns:xlink="http://www.w3.org/1999/xlink" xml:space="preserve" style="fill-rule:evenodd;clip-rule:evenodd;stroke-linejoin:round;stroke-miterlimit:1.41421;">
    <g transform="matrix(1,0,0,1,-1490,-524)">
        <g id="bunq_Colors" transform="matrix(0.135287,0,0,1.16505,1328.2,-180.854)">
            <rect x="1196" y="605" width="887" height="103" style="fill:none;"/>
            <clipPath id="_clip1">
                <rect x="1196" y="605" width="887" height="103"/>
            </clipPath>
            <g clip-path="url(#_clip1)">
                <g>
                    <g transform="matrix(2.46389,0,0,0.858333,-1583.27,144.075)">
                        <rect x="1128" y="537" width="60" height="120" style="fill:rgb(35,134,71);"/>
                    </g>
                    <g transform="matrix(2.46389,0,0,0.858333,-1509.35,144.075)">
                        <rect x="1128" y="537" width="60" height="120" style="fill:rgb(47,155,71);"/>
                    </g>
                    <g transform="matrix(2.46389,0,0,0.858333,-1435.43,144.075)">
                        <rect x="1128" y="537" width="60" height="120" style="fill:rgb(98,182,79);"/>
                    </g>
                    <g transform="matrix(2.46389,0,0,0.858333,-1361.52,144.075)">
                        <rect x="1128" y="537" width="60" height="120" style="fill:rgb(137,204,83);"/>
                    </g>
                    <g transform="matrix(2.46389,0,0,0.858333,-1287.6,144.075)">
                        <rect x="1128" y="537" width="60" height="120" style="fill:rgb(61,184,173);"/>
                    </g>
                    <g transform="matrix(2.46389,0,0,0.858333,-1213.68,144.075)">
                        <rect x="1128" y="537" width="60" height="120" style="fill:rgb(51,148,215);"/>
                    </g>
                    <g transform="matrix(2.46389,0,0,0.858333,-1139.77,144.075)">
                        <rect x="1128" y="537" width="60" height="120" style="fill:rgb(40,114,188);"/>
                    </g>
                    <g transform="matrix(2.46389,0,0,0.858333,-1065.85,144.075)">
                        <rect x="1128" y="537" width="60" height="120" style="fill:rgb(29,92,132);"/>
                    </g>
                    <g transform="matrix(2.46389,0,0,0.858333,-991.933,144.075)">
                        <rect x="1128" y="537" width="60" height="120" style="fill:rgb(153,50,51);"/>
                    </g>
                    <g transform="matrix(2.46389,0,0,0.858333,-918.017,144.075)">
                        <rect x="1128" y="537" width="60" height="120" style="fill:rgb(225,48,48);"/>
                    </g>
                    <g transform="matrix(2.46389,0,0,0.858333,-844.1,144.075)">
                        <rect x="1128" y="537" width="60" height="120" style="fill:rgb(242,136,37);"/>
                    </g>
                    <g transform="matrix(1.23194,0,0,0.858333,619.45,144.075)">
                        <rect x="1128" y="537" width="60" height="120" style="fill:rgb(245,200,54);"/>
                    </g>
                </g>
            </g>
        </g>
    </g>
</svg>
