<?xml version="1.0" encoding="UTF-8"?>
<svg width="530px" height="898px" viewBox="0 0 530 898" version="1.1" xmlns="http://www.w3.org/2000/svg" xmlns:xlink="http://www.w3.org/1999/xlink">
    <!-- Generator: Sketch 48.2 (47327) - http://www.bohemiancoding.com/sketch -->
    <title>Page 1</title>
    <desc>Created with Sketch.</desc>
    <defs></defs>
    <g id="Flow" stroke="none" stroke-width="1" fill="none" fill-rule="evenodd">
        <g id="Page-1" transform="translate(-0.031250, 5.499989)">
            <path d="M194.561861,536.990736 C201.433786,620.247647 347.145762,713.629558 365.068801,726.600113 C344.527313,696.764228 319.617027,648.557459 305.636166,614.107982 C325.516143,629.977863 362.0492,644.734849 390.26067,650.190364 C354.567413,625.167586 188.508511,464.274832 168.91507,258.236652 C168.91507,258.236652 187.689936,453.733824 194.561861,536.990736 Z" id="Fill-1" fill="#F5C836"></path>
            <path d="M310.009916,686.758796 C261.543496,648.935263 199.007069,590.844751 194.561861,536.990736 C187.689936,453.733824 168.91507,258.236652 168.91507,258.236652 C183.060071,406.976718 273.534166,532.188949 336.19016,599.742242 C316.847174,607.938603 319.786119,624.01295 319.786119,624.01295 L305.681446,614.144065 L305.636166,614.107982 L314.884575,635.457432 C315.224882,641.041711 308.027508,652.657408 310.009916,686.758796 Z" id="Fill-2" fill="#F28825"></path>
            <path d="M247.542824,630.932984 C219.634871,601.438114 197.161915,568.489947 194.561861,536.990736 C187.689936,453.733824 168.91507,258.236652 168.91507,258.236652 C179.658422,371.21271 234.438552,470.614719 287.6162,541.486883 C273.268855,567.111742 259.541277,597.797331 247.542824,630.932984 Z" id="Fill-3" fill="#E13030"></path>
            <path d="M171.632569,283.119345 L172.043625,283.337254 C183.043091,354.766927 210.906472,420.097262 243.428018,475.328068 C230.601085,505.968378 219.064628,540.568551 209.705848,581.515687 C201.310681,566.690781 195.774512,551.68334 194.561861,536.990736 C189.188416,471.887507 176.536942,338.154174 171.274575,282.930443 L171.632569,283.119345 Z" id="Fill-4" fill="#993233"></path>
            <path d="M400.873135,463.410977 C389.495865,494.148921 172.862907,436.727703 194.561861,536.283238 L168.91507,258.236652 C160.137146,154.913691 480.998662,253.31742 506.022855,174.044428 L400.873135,463.410977 Z" id="Fill-5" fill="#1D5C84"></path>
            <path d="M505.132823,176.49237 L506.022855,174.044428 C505.758958,174.879275 505.461809,175.699973 505.132823,176.49237 L400.873135,463.410977 C393.454315,483.455802 299.05007,466.31101 240.281776,479.564564 C231.301508,398.280864 222.347417,297.42424 217.663075,210.789735 C305.262607,193.427034 482.343615,231.680726 505.132823,176.49237 Z" id="Fill-6" fill="#2872BC"></path>
            <path d="M505.132823,176.49237 L506.022855,174.044428 C505.758958,174.879275 505.461809,175.699973 505.132823,176.49237 L400.873135,463.410977 C395.900134,476.847066 351.844961,473.573474 305.636166,473.946325 C308.95433,387.483034 319.343933,291.561207 330.811056,206.572341 C409.455082,208.718182 490.239997,212.558479 505.132823,176.49237 Z" id="Fill-7" fill="#3394D7"></path>
            <path d="M505.132823,176.49237 L506.022855,174.044428 C505.758958,174.879275 505.461809,175.699973 505.132823,176.49237 L400.873135,463.410977 C397.943388,471.326461 381.449494,473.442587 358.942578,473.921563 C373.138519,414.409688 403.146325,304.50134 430.362346,206.825625 C467.938963,204.332404 496.814773,196.637659 505.132823,176.49237 Z" id="Fill-8" fill="#3DB8AD"></path>
            <path d="M284.403453,348.442605 L302.101507,0 C408.469538,43.5960068 529.507533,110.673861 505.860838,177.581917 C480.75033,248.633078 400.443684,463.410977 400.443684,463.410977 C412.088389,433.705273 354.68698,350.417231 284.403453,348.442605 Z" id="Fill-9" fill="#89CC53"></path>
            <path d="M385.050657,410.945072 C364.324513,380.263021 326.696249,349.631201 284.403453,348.442605 L302.101507,0 C378.862883,31.4624216 463.263818,75.1504031 495.413927,122.177774 C470.722966,201.269646 419.406037,340.459909 385.050657,410.945072 Z" id="Fill-10" fill="#62B64F"></path>
            <path d="M361.869496,383.862061 C341.070479,364.39031 313.869316,349.270377 284.403453,348.442605 L302.101507,0 C355.904583,22.0527025 413.461642,50.1120603 454.148418,81.1146085 C434.476445,164.896483 393.31989,304.468087 361.869496,383.862061 Z" id="Fill-11" fill="#2F9B47"></path>
            <path d="M330.541499,361.263878 C316.323626,353.736103 300.709859,348.901064 284.403453,348.442605 L302.101507,0 C332.297508,12.3741343 363.676445,26.6443625 392.591168,42.2659111 C380.990328,135.613154 349.18477,289.978535 330.541499,361.263878 Z" id="Fill-12" fill="#238647"></path>
            <path d="M266.705399,773.417356 L302.101507,0" id="Fill-13" fill="#000000"></path>
            <path d="M266.705399,773.417356 L302.101507,0" id="Stroke-14" stroke="#000000" stroke-width="10" stroke-linecap="round" stroke-linejoin="round"></path>
            <polygon id="Fill-15" fill="#FFFFFF" points="24.5338969 886.193406 42.8109673 863.482235 52.9934154 839.63829 91.7511285 827.296559 100.473867 795.78348 120.186875 795.78348 132.609119 819.54479 163.827454 791.774091 201.156447 761.661575 219.825895 770.09141 233.373768 787.62957 254.305087 777.464243 260.753221 773.149922 276.952088 770.09141 292.110933 761.661575 305.769175 767.509043 330.412027 783.61735 338.812854 791.774091 375.271624 798.193925 380.101711 787.62957 402.336241 811.651946 420.461624 823.927738 441.599532 804.275575 459.449698 827.296559 459.449698 846.312328 490.597991 856.388439 497.230074 865.683685 503.949887 881.600189 519.371214 884.061574 529.311556 894.984559 0 894.984559"></polygon>
            <polygon id="Fill-16" fill-opacity="0.5" fill="#000000" points="201.215169 761.844817 214.320148 776.06552 224.567545 798.89081 233.56267 786.988577 220.219264 770.015"></polygon>
            <polygon id="Fill-17" fill-opacity="0.5" fill="#000000" points="338.898462 791.710416 375.437179 798.169163 401.582048 834.222678"></polygon>
            <path d="M258.966789,773.127282 L273.483934,769.39877 C275.122499,771.66913 274.610978,774.838012 272.341325,776.477284 C270.854165,777.550558 268.903594,777.737337 267.239559,776.965457 L258.966789,773.127282 Z" id="Fill-18" fill-opacity="0.5" fill="#000000"></path>
        </g>
    </g>
</svg>