<svg width="475px" height="639px" viewBox="0 0 475 639" version="1.1" xmlns="http://www.w3.org/2000/svg" xmlns:xlink="http://www.w3.org/1999/xlink">
    <title>girl NEW</title>
    <desc>Created with Sketch.</desc>
    <defs>
        <path d="M87.493585,28.1653162 C83.7915898,-2.06716966 56.4296215,-1.60399932 38.7168521,1.2527359 C12.1952813,5.53006741 -0.593695489,28.7061996 0.0212295551,43.0748421 C0.659580315,58.0082001 14.4997861,95.8814423 49.7225462,88.1049469 C83.9182351,80.5543377 89.4767183,44.3659165 87.493585,28.1653162 Z" id="path-1"></path>
        <rect id="path-3" x="0" y="0" width="87.8464349" height="124.341032"></rect>
        <path d="M46.5228534,88.0395725 C57.140623,85.6630644 60.9824859,81.4920502 66.4037513,75.8054058 C64.9303172,70.9796394 63.3401154,65.6082462 66.0757215,57.9330951 C68.8113277,50.257944 75.3361499,44.6440499 80.4638084,38.6542795 C80.4638084,38.6542795 81.5457666,30.2031257 79.2293096,22.8553508 C74.0773526,6.52292021 57.9654221,-3.90461526 33.0527098,1.58802842 C12.9207275,6.03791856 -1.6880708,25.7411106 0.838298257,45.274552 C2.05659806,54.683584 10.6818907,96.0542247 46.5228534,88.0395725 Z" id="path-5"></path>
    </defs>
    <g id="girl-NEW" stroke="none" stroke-width="1" fill="none" fill-rule="evenodd">
        <g id="Group" transform="translate(275.134279, 264.713231) rotate(9.568874) translate(-275.134279, -264.713231) translate(51.134279, -0.786769)">
            <g transform="translate(180.063981, 183.003726) rotate(-9.568874) translate(-180.063981, -183.003726) translate(55.651833, 18.783995)" fill="#FFFFFF" id="Shape">
                <path d="M52.8719899,0.251984694 C64.3384025,18.6972649 78.2502949,30.234073 128.630255,40.197181 C227.841297,59.8187568 243.275163,102.629218 241.139349,152.930536 C239.492191,191.87234 221.757796,235.769077 197.868521,262.083407 C212.802749,259.042494 233.254955,252.208672 248.595482,238.87037 L248.458219,239.282046 C239.634945,266.046475 226.572986,279.862321 197.698315,293.063398 C166.29306,307.422657 141.204655,315.458572 89.8325575,327.210549 C51.4082159,335.99846 25.7504433,274.872808 17.727139,248.816462 C13.6366978,235.53305 -0.370729691,201.343633 0.363902562,186.687418 L9.6626558,88.6152182 C13.1205885,68.7329143 19.8113423,25.1704583 52.8719899,0.251984694 Z"></path>
            </g>
            <path d="M315.013949,235.440651 C318.747508,296.97746 324.424714,343.328907 345.821301,383.306508 C364.631849,418.438955 395.576463,448.650499 448.011004,479.915934 C443.18483,494.374002 436.239312,504.440857 404.635834,518.887948 C373.032356,533.335038 328.883023,532.500707 275.608431,524.925865 C222.33384,517.351023 139.654179,462.899984 139.654179,462.899984 C178.57104,432.095627 177.988495,389.308747 171.643641,350.026055 C172.118022,349.854249 172.592953,349.669818 173.067884,349.47386 C221.77161,329.350579 245.174436,317.254434 273.752633,297.87711 C300.337769,279.852828 310.85762,263.901748 315.013949,235.440651 Z" id="Shape" fill="#FFFFFF"></path>
            <path d="M315.013949,235.440651 C326.703283,351.415874 341.917535,413.531775 448.011004,479.915934 C448.565547,495.329091 436.964062,505.434369 405.360584,519.881459 C395.192127,524.525167 383.99694,529.218276 371.346764,530.985739 C370.836145,531.057096 369.32076,528.510193 368.799159,528.58155 C344.031389,512.553623 315.914396,477.835597 293.831493,410.414014 C268.200062,332.14833 196.35431,349.067673 171.855026,351.34781 C171.785296,350.907042 171.715018,350.466274 171.643641,350.026055 C172.118022,349.854249 172.592953,349.669818 173.067884,349.47386 C221.77161,329.350579 245.174436,317.254434 273.752633,297.87711 C300.337769,279.852828 310.85762,263.901748 315.013949,235.440651 Z" id="Shape" fill-opacity="0.7" fill="#000000"></path>
            <path d="M147.679134,174.162374 C154.903571,180.124543 174.012255,192.130119 194.34862,181.313464 C215.582687,170.019265 228.734698,148.001724 220.154101,115.445272 L219.605048,113.249666 L226.193681,111.602961 L226.193681,103.369437 L301.413912,104.46724 L301.962965,110.505158 L238.821895,116.543075 C238.821895,116.543075 248.800381,172.657286 199.290095,186.80248 C165.23345,194.05347 147.679134,174.162374 147.679134,174.162374 Z" id="Shape" fill-opacity="0.7" fill="#000000"></path>
            <path d="M98.1408473,209.334891 C98.0370764,208.868324 98.1902621,208.381997 98.5422049,208.059243 C98.8941477,207.73594 99.3915896,207.625062 99.8478524,207.768325 C101.050827,208.261239 102.744106,209.068673 104.853018,210.405249 C108.942363,212.997711 113.34357,218.413723 106.500176,219.736576 C101.397828,220.722952 99.0204299,213.217821 98.1408473,209.334891 Z" id="Shape" fill="#000000"></path>
            <polygon id="Shape" fill="#000000" points="112.571052 276.989208 116.932179 279.017949 140.267471 272.980031 171.288404 264.087276 184.427786 252.673416 155.365873 248.279459 128.445815 249.926164 116.839938 260.057241"></polygon>
            <g transform="translate(118.725605, 249.721964)" fill="#FFFFFF" id="Shape">
                <path d="M6.43087609,6.991718 C4.47339279,8.14733717 1.6294079,10.5662837 0.0159550345,12.3569324 C0.0159550345,12.3569324 0.943341414,13.3083548 1.66829829,14.0522145 C2.16988469,14.5660724 2.95567014,14.6749025 3.57791648,14.3158752 C10.1065172,10.7054068 23.5785494,5.46809583 47.0693461,0.897229331 C48.5052992,0.617861202 33.8077209,-0.440147416 27.3718588,0.259955848 C22.0678071,0.836643472 11.6312201,3.91866858 6.43087609,6.991718 Z"></path>
            </g>
            <g transform="translate(151.588210, 261.887802) rotate(-6.896778) translate(-151.588210, -261.887802) translate(109.067603, 235.129954)" fill="#555555" id="Shape">
                <path d="M24.8098803,52.2921895 C18.3101941,53.8708304 7.71841798,46.0577657 2.88291064,42.1023812 C1.2527731,40.7575724 0.339698417,38.7321257 0.412173377,36.6205015 C0.749291749,26.9795947 2.07141071,16.5334494 6.28209606,9.13151202 C7.59378302,6.84478818 10.1161312,5.53126678 12.7422504,5.76619664 C18.32996,6.35571691 22.9249822,4.34673725 27.7489595,1.15871707 C29.4060006,0.0735387091 31.4078468,-0.0247146677 33.356435,0.331522436 C48.1770152,3.04254717 79.384623,15.1502175 84.633567,20.3999119 C84.8795427,20.6743626 84.9844117,21.0470668 84.9179763,21.4093418 C84.8509919,21.7716168 84.6198407,22.0822951 84.2920562,22.2508079 C80.2010644,25.3965626 65.23224,36.8466489 57.5938184,41.8811739 C47.7267919,48.3834616 33.3646708,50.2140483 24.8098803,52.2921895 Z M70.3730206,23.4726627 C70.5909945,23.4589402 70.7677895,23.2915252 70.793595,23.075258 C70.8199495,22.8584419 70.6876278,22.6542505 70.4795368,22.5889312 C52.9351061,17.0966224 43.7088241,14.4124938 29.4559644,15.3412352 C27.2108878,15.487243 18.7263761,17.5867914 15.10153,19.8219185 C9.22392056,23.4463154 5.59797636,32.4252469 3.79214195,37.1227464 C3.73888384,37.2610696 3.77402321,37.4180554 3.88163754,37.5207 C3.98870283,37.6233446 4.14737906,37.6513386 4.28354414,37.5915083 C16.7904162,32.2303869 42.7155877,25.3806445 70.3730206,23.4726627 Z"></path>
            </g>
            <path d="M127.364181,197.780512 C133.270891,197.775572 142.074403,201.371426 139.032651,204.479856 C134.606737,209.002805 123.697058,207.058047 118.730876,203.365037 C115.158738,200.708353 122.469376,197.784354 127.364181,197.780512 Z" id="Shape" fill="#000000"></path>
            <path d="M67.9198843,190.248484 C77.9950028,186.141602 83.2132004,207.19143 87.6133094,200.683653 C85.3588987,196.173328 82.8980441,191.143743 84.3189927,183.118801 C85.7399413,175.093311 79.31822,163.807894 83.3768181,157.041035 C83.3768181,157.041035 90.4425783,155.063343 96.0681731,150.574974 L99.9115425,151.123876 C99.9115425,151.123876 102.429499,144.674831 104.303965,141.792549 C108.704623,135.02569 119.181648,134.343954 122.971759,136.303533 C127.224722,138.502433 127.913234,141.792549 127.913234,141.792549 L132.305656,140.694746 L137.27129,139.362561 C141.7576,156.450417 154.860745,181.247596 187.032492,168.29242 C219.204789,155.337245 219.412331,129.704089 215.761679,113.798567 L227.291787,112.151862 C225.797814,102.744238 228.00281,95.1386574 232.523162,95.3340663 L231.684209,81.9622745 L225.095576,80.8644713 C225.095576,80.8644713 215.23349,84.1540386 210.271151,83.6089793 C182.596146,78.6820385 141.992046,83.1347283 122.971759,128.61891 C115.993847,128.519559 104.842036,130.832082 102.107754,135.754631 C84.7675688,124.154694 41.347377,119.404499 16.4555203,152.770581 L1.63109529,162.65081 C1.26103372,167.491024 1.88365957,171.927247 3.8273064,175.824448 C8.53104155,177.338867 12.7373349,183.499739 13.1612036,186.80248 L20.2988897,186.253578 C20.2988897,186.253578 33.9104572,204.110994 67.9198843,190.248484 Z" id="Shape" fill="#000000"></path>
            <g transform="translate(176.505079, 137.017445) rotate(-13.555783) translate(-176.505079, -137.017445) translate(131.884689, 91.896369)" id="Clipped">
                <g transform="translate(0.544215, 0.543147)">
                    <g>
                        <mask id="mask-2" fill="white">
                            <use xlink:href="#path-1"></use>
                        </mask>
                        <g id="Shape"></g>
                        <g id="Group" mask="url(#mask-2)">
                            <g id="Clipped">
                                <mask id="mask-4" fill="white">
                                    <use xlink:href="#path-3"></use>
                                </mask>
                                <g id="Rectangle-path"></g>
                                <g id="Group" mask="url(#mask-4)">
                                    <rect id="Rectangle-path" fill="#238647" x="0" y="0" width="14.6410725" height="124.341032"></rect>
                                    <rect id="Rectangle-path" fill="#2F9B47" x="7.32053624" y="0" width="14.6410725" height="124.341032"></rect>
                                    <rect id="Rectangle-path" fill="#62B64F" x="14.6410725" y="0" width="14.6410725" height="124.341032"></rect>
                                    <rect id="Rectangle-path" fill="#89CC53" x="21.9616087" y="0" width="14.6410725" height="124.341032"></rect>
                                    <rect id="Rectangle-path" fill="#3DB8AD" x="29.282145" y="0" width="14.6410725" height="124.341032"></rect>
                                    <rect id="Rectangle-path" fill="#3394D7" x="36.6026812" y="0" width="14.6410725" height="124.341032"></rect>
                                    <rect id="Rectangle-path" fill="#2872BC" x="43.9232174" y="0" width="14.6410725" height="124.341032"></rect>
                                    <rect id="Rectangle-path" fill="#1D5C84" x="51.2437537" y="0" width="14.6410725" height="124.341032"></rect>
                                    <rect id="Rectangle-path" fill="#993233" x="58.5642899" y="0" width="14.6410725" height="124.341032"></rect>
                                    <rect id="Rectangle-path" fill="#E13030" x="65.8848261" y="0" width="14.6410725" height="124.341032"></rect>
                                    <rect id="Rectangle-path" fill="#F28825" x="73.2053624" y="0" width="14.6410725" height="124.341032"></rect>
                                    <rect id="Rectangle-path" fill="#F5C836" x="80.5258986" y="0" width="7.32053624" height="124.341032"></rect>
                                </g>
                            </g>
                        </g>
                    </g>
                </g>
            </g>
            <path d="M93.3229092,209.856347 C93.7154819,210.324011 87.2218347,219.372105 80.1456425,222.803289 L96.0681731,216.443166 L93.3229092,209.856347 Z" id="Shape" fill-opacity="0.7" fill="#000000"></path>
            <polyline id="Shape" fill="#000000" points="232.480885 95.3505334 301.962965 101.722732 299.766754 92.9403065 225.157619 80.8913675"></polyline>
            <polygon id="Shape" fill-opacity="0.7" fill="#000000" points="99.3624898 150.574974 102.107754 160.455203 107.049229 144.537057 106.500176 141.792549 103.205859 141.243647"></polygon>
            <g transform="translate(60.919332, 178.165453) rotate(-8.730918) translate(-60.919332, -178.165453) translate(19.973562, 133.044377)" id="Clipped">
                <g transform="translate(0.922715, 0.892508)">
                    <g transform="translate(0.000000, 0.000000)">
                        <mask id="mask-6" fill="white">
                            <use xlink:href="#path-5"></use>
                        </mask>
                        <g id="Shape"></g>
                        <g id="Group" mask="url(#mask-6)">
                            <g transform="translate(0.000000, -576.970439)" id="Rectangle-path">
                                <rect fill="#238647" x="0" y="0" width="13.4991668" height="1455.00495"></rect>
                                <rect fill="#2F9B47" x="6.74958339" y="0" width="13.4991668" height="1455.00495"></rect>
                                <rect fill="#62B64F" x="13.4991668" y="0" width="13.4991668" height="1455.00495"></rect>
                                <rect fill="#89CC53" x="20.2487502" y="0" width="13.4991668" height="1455.00495"></rect>
                                <rect fill="#3DB8AD" x="26.9983335" y="0" width="13.4991668" height="1455.00495"></rect>
                                <rect fill="#3394D7" x="33.7479169" y="0" width="13.4991668" height="1455.00495"></rect>
                                <rect fill="#2872BC" x="40.4975003" y="0" width="13.4991668" height="1455.00495"></rect>
                                <rect fill="#1D5C84" x="47.2470837" y="0" width="13.4991668" height="1455.00495"></rect>
                                <rect fill="#993233" x="53.9966671" y="0" width="13.4991668" height="1455.00495"></rect>
                                <rect fill="#E13030" x="60.7462505" y="0" width="13.4991668" height="1455.00495"></rect>
                                <rect fill="#F28825" x="67.4958339" y="0" width="13.4991668" height="1455.00495"></rect>
                                <rect fill="#F5C836" x="74.2454172" y="0" width="6.74958339" height="1455.00495"></rect>
                            </g>
                        </g>
                    </g>
                </g>
            </g>
        </g>
        <path d="M96.4801719,474.267905 C42.7932137,502.371623 26.4725345,536.620469 16.016063,571.298498 C9.045082,594.417185 3.81554569,616.92461 0.32745408,638.820773 L168.40743,638.820773 C183.272787,598.729829 186.139213,565.414782 177.006708,538.875633 C167.874202,512.336485 151.142547,486.576369 126.811743,461.595286 L96.4801719,474.267905 Z" id="Path-2" fill="#FFFFFF" fill-rule="nonzero"></path>
    </g>
</svg>