<?xml version="1.0" encoding="utf-8" standalone="no"?><svg xmlns:android="http://schemas.android.com/apk/res/android" height="120.0" width="120.0" xmlns="http://www.w3.org/2000/svg">
    <path android:fillType="evenOdd" d="M0,0h120v120h-120z" fill="#cccccc" fill-opacity="1.0" stroke="#00000000" stroke-width="1.0"/>
    <path android:fillType="evenOdd" d="M73.093,48.502C73.226,48.538 73.359,48.573 73.493,48.609C74.659,48.922 75.355,50.105 75.048,51.252C75.038,51.287 75.028,51.321 75.017,51.355L69.721,67.744C69.371,68.825 68.227,69.443 67.111,69.16L60.394,92.346C59.738,94.613 57.372,95.934 55.073,95.318L31.68,89.05C29.381,88.434 27.993,86.107 28.557,83.815L34.38,60.189C33.767,59.69 33.453,58.882 33.626,58.073L37.233,41.231C37.457,40.185 38.418,39.486 39.469,39.542C40.072,37.26 42.412,35.879 44.733,36.452C44.761,36.459 44.789,36.466 44.817,36.474L69.984,43.217C72.305,43.839 73.691,46.2 73.093,48.502ZM40.051,70.813C41.916,71.313 43.678,70.788 43.985,69.641C44.293,68.494 43.029,67.159 41.164,66.659C39.298,66.159 37.536,66.684 37.229,67.831C36.921,68.978 38.185,70.313 40.051,70.813ZM38.381,77.044C40.247,77.544 42.008,77.019 42.316,75.872C42.623,74.725 41.36,73.39 39.494,72.89C37.628,72.39 35.867,72.915 35.559,74.062C35.252,75.209 36.515,76.544 38.381,77.044ZM36.712,83.275C38.577,83.775 40.339,83.25 40.646,82.103C40.954,80.956 39.69,79.621 37.825,79.121C35.959,78.621 34.197,79.145 33.89,80.292C33.582,81.44 34.846,82.775 36.712,83.275ZM48.496,73.076C50.362,73.576 52.124,73.051 52.431,71.904C52.738,70.757 51.475,69.422 49.609,68.922C47.744,68.422 45.982,68.947 45.675,70.094C45.367,71.241 46.631,72.576 48.496,73.076ZM46.827,79.307C48.693,79.807 50.454,79.282 50.762,78.135C51.069,76.988 49.806,75.653 47.94,75.153C46.074,74.653 44.312,75.178 44.005,76.325C43.698,77.472 44.961,78.807 46.827,79.307ZM45.157,85.538C47.023,86.038 48.785,85.513 49.092,84.366C49.399,83.219 48.136,81.884 46.27,81.384C44.404,80.884 42.643,81.408 42.335,82.555C42.028,83.703 43.291,85.038 45.157,85.538ZM56.942,75.339C58.808,75.839 60.569,75.314 60.877,74.167C61.184,73.02 59.921,71.685 58.055,71.185C56.189,70.685 54.428,71.21 54.12,72.357C53.813,73.504 55.076,74.839 56.942,75.339ZM55.272,81.57C57.138,82.07 58.9,81.545 59.207,80.398C59.515,79.251 58.251,77.916 56.385,77.416C54.52,76.916 52.758,77.441 52.451,78.588C52.143,79.735 53.407,81.07 55.272,81.57ZM53.603,87.801C55.469,88.301 57.23,87.776 57.538,86.629C57.845,85.482 56.582,84.147 54.716,83.647C52.85,83.147 51.088,83.671 50.781,84.819C50.474,85.966 51.737,87.301 53.603,87.801ZM42.951,43.097L38.499,59.712L63.836,66.501L68.288,49.886L42.951,43.097Z" fill="#ffffff" fill-opacity="1.0" stroke="#00000000" stroke-width="1.0"/>
    <path android:fillType="nonZero" d="M53.811,25.724L66.594,21.816C73.995,19.553 81.829,23.718 84.092,31.119L94.959,66.664C97.221,74.064 93.056,81.898 85.655,84.161L72.872,88.069C65.471,90.332 57.637,86.166 55.374,78.766L44.507,43.221C42.245,35.82 46.41,27.987 53.811,25.724Z" fill="#cccccc" fill-opacity="1.0" stroke="#00000000" stroke-width="1.0"/>
    <path android:fillType="evenOdd" d="M54.867,29.178L67.65,25.269A10.401,10.401 118,0 1,80.638 32.175L91.505,67.719A10.401,10.401 118,0 1,84.599 80.707L71.816,84.615A10.401,10.401 118,0 1,58.828 77.71L47.961,42.165A10.401,10.401 118,0 1,54.867 29.178z" fill="#ffffff" fill-opacity="1.0" stroke="#00000000" stroke-width="1.0"/>
    <path android:fillType="evenOdd" d="M49.706,40.082l28.32,-8.658l11.734,38.38l-28.32,8.658z" fill="#cccccc" fill-opacity="1.0" stroke="#00000000" stroke-width="1.0"/>
</svg>