<?xml version="1.0" encoding="utf-8" standalone="no"?><svg xmlns:android="http://schemas.android.com/apk/res/android" height="120.0" width="120.0" xmlns="http://www.w3.org/2000/svg">
    <path android:fillType="evenOdd" d="M0,0h120v120h-120z" fill="#cccccc" fill-opacity="1.0" stroke="#00000000" stroke-width="1.0"/>
    <path android:fillType="evenOdd" d="M45.1,20L74.9,20C77.66,20 79.9,22.24 79.9,25C79.9,25.03 79.9,25.07 79.9,25.1L78.85,77.6C78.79,80.32 76.57,82.5 73.85,82.5L46.15,82.5C43.43,82.5 41.21,80.32 41.15,77.6L40.1,25.1C40.05,22.34 42.24,20.06 45,20C45.03,20 45.07,20 45.1,20Z" fill="#ffffff" fill-opacity="1.0" stroke="#00000000" stroke-width="1.0"/>
    <path android:fillType="evenOdd" d="M40.13,25L79.87,25C81.25,25 82.37,26.12 82.37,27.5C82.37,27.54 82.37,27.58 82.37,27.62L81.37,47.62C81.3,48.96 80.2,50 78.87,50L41.13,50C39.8,50 38.7,48.96 38.63,47.62L37.63,27.62C37.56,26.25 38.62,25.07 40,25C40.04,25 40.09,25 40.13,25Z" fill="#ffffff" fill-opacity="1.0" stroke="#00000000" stroke-width="1.0"/>
    <path android:fillType="evenOdd" d="M46.25,57.5a3.75,2.5 0,1 0,7.5 0a3.75,2.5 0,1 0,-7.5 0z" fill="#cccccc" fill-opacity="1.0" stroke="#00000000" stroke-width="1.0"/>
    <path android:fillType="evenOdd" d="M46.25,65a3.75,2.5 0,1 0,7.5 0a3.75,2.5 0,1 0,-7.5 0z" fill="#cccccc" fill-opacity="1.0" stroke="#00000000" stroke-width="1.0"/>
    <path android:fillType="evenOdd" d="M46.25,72.5a3.75,2.5 0,1 0,7.5 0a3.75,2.5 0,1 0,-7.5 0z" fill="#cccccc" fill-opacity="1.0" stroke="#00000000" stroke-width="1.0"/>
    <path android:fillType="evenOdd" d="M56.25,57.5a3.75,2.5 0,1 0,7.5 0a3.75,2.5 0,1 0,-7.5 0z" fill="#cccccc" fill-opacity="1.0" stroke="#00000000" stroke-width="1.0"/>
    <path android:fillType="evenOdd" d="M56.25,65a3.75,2.5 0,1 0,7.5 0a3.75,2.5 0,1 0,-7.5 0z" fill="#cccccc" fill-opacity="1.0" stroke="#00000000" stroke-width="1.0"/>
    <path android:fillType="evenOdd" d="M56.25,72.5a3.75,2.5 0,1 0,7.5 0a3.75,2.5 0,1 0,-7.5 0z" fill="#cccccc" fill-opacity="1.0" stroke="#00000000" stroke-width="1.0"/>
    <path android:fillType="evenOdd" d="M66.25,57.5a3.75,2.5 0,1 0,7.5 0a3.75,2.5 0,1 0,-7.5 0z" fill="#cccccc" fill-opacity="1.0" stroke="#00000000" stroke-width="1.0"/>
    <path android:fillType="evenOdd" d="M66.25,65a3.75,2.5 0,1 0,7.5 0a3.75,2.5 0,1 0,-7.5 0z" fill="#cccccc" fill-opacity="1.0" stroke="#00000000" stroke-width="1.0"/>
    <path android:fillType="evenOdd" d="M66.25,72.5a3.75,2.5 0,1 0,7.5 0a3.75,2.5 0,1 0,-7.5 0z" fill="#cccccc" fill-opacity="1.0" stroke="#00000000" stroke-width="1.0"/>
    <path android:fillType="evenOdd" d="M45,27.5l30,0l0,20l-30,0z" fill="#cccccc" fill-opacity="1.0" stroke="#00000000" stroke-width="1.0"/>
    <path android:fillType="evenOdd" d="M65,85L65,100L47.5,100C46.12,100 45,98.88 45,97.5L45,85L65,85ZM70,85L75,85L75,97.5C75,98.88 73.88,100 72.5,100L70,100L70,85Z" fill="#ffffff" fill-opacity="1.0" stroke="#00000000" stroke-width="1.0"/>
</svg>