<?xml version="1.0" encoding="utf-8" standalone="no"?><svg xmlns:android="http://schemas.android.com/apk/res/android" height="40.0" width="40.0" xmlns="http://www.w3.org/2000/svg">
    <path d="M20,20m-20,0a20,20 0,1 1,40 0a20,20 0,1 1,-40 0" fill="#ffffff" fill-opacity="1.0" stroke="#00000000" stroke-width="1.0"/>
    <path d="M20,37.33C29.57,37.33 37.33,29.57 37.33,20C37.33,10.43 29.57,2.67 20,2.67C10.43,2.67 2.67,10.43 2.67,20C2.67,29.57 10.43,37.33 20,37.33ZM20,40C8.95,40 0,31.05 0,20C0,8.95 8.95,0 20,0C31.05,0 40,8.95 40,20C40,31.05 31.05,40 20,40Z" fill="#b91d63" fill-opacity="1.0" stroke="#00000000" stroke-width="1.0"/>
    <path d="M11.89,27.39l3.69,0l0,-6.13l-3.69,0z" fill="#0a0a08" fill-opacity="1.0" stroke="#00000000" stroke-width="1.0"/>
    <path d="M15.86,18.2C15.86,19.35 14.93,20.29 13.77,20.29C12.62,20.29 11.69,19.35 11.69,18.2C11.69,17.04 12.62,16.11 13.77,16.11C14.93,16.11 15.86,17.04 15.86,18.2" fill="#0a0a08" fill-opacity="1.0" stroke="#00000000" stroke-width="1.0"/>
    <path d="M22.33,11.29C24.9,11.29 27.03,11.99 28.52,13.3C30.19,14.79 31.04,17.04 31.04,20C31.04,25.86 28.19,28.71 22.33,28.71L10.67,28.71L10.67,11.29L22.33,11.29ZM22.58,9.96L9.33,9.96L9.33,30.04L22.58,30.04L22.58,30.04C25.47,30 27.76,29.28 29.39,27.9C31.37,26.22 32.37,23.56 32.37,20C32.37,18.3 32.11,16.77 31.59,15.47C31.09,14.22 30.35,13.15 29.4,12.31C27.72,10.81 25.37,10.01 22.58,9.96L22.58,9.96L22.58,9.96Z" fill="#0a0a08" fill-opacity="1.0" stroke="#00000000" stroke-width="1.0"/>
    <path d="M21.96,27.4L17.28,27.4L17.28,12.92L21.96,12.92L21.77,12.92C25.68,12.92 29.84,14.46 29.84,20.18C29.84,26.22 25.68,27.4 21.77,27.4L21.96,27.4" fill="#b9215e" fill-opacity="1.0" stroke="#00000000" stroke-width="1.0"/>
    <path d="M17.18,17.25L17.18,19.55L17.7,19.55C17.9,19.55 18.04,19.54 18.13,19.52C18.24,19.49 18.34,19.44 18.41,19.37C18.49,19.3 18.55,19.19 18.6,19.04C18.65,18.88 18.67,18.67 18.67,18.4C18.67,18.13 18.65,17.92 18.6,17.78C18.55,17.64 18.48,17.52 18.4,17.44C18.31,17.36 18.2,17.31 18.07,17.28C17.97,17.26 17.78,17.25 17.49,17.25L17.18,17.25ZM16.47,16.65L17.76,16.65C18.05,16.65 18.27,16.68 18.42,16.72C18.63,16.78 18.8,16.89 18.95,17.04C19.09,17.2 19.2,17.38 19.28,17.61C19.36,17.83 19.39,18.1 19.39,18.43C19.39,18.72 19.36,18.96 19.29,19.17C19.2,19.43 19.08,19.63 18.91,19.79C18.79,19.91 18.63,20 18.42,20.07C18.26,20.12 18.06,20.14 17.8,20.14L16.47,20.14L16.47,16.65L16.47,16.65Z" fill="#ffffff" fill-opacity="1.0" stroke="#00000000" stroke-width="1.0"/>
    <path d="M17.76,16.75C18.04,16.75 18.25,16.77 18.4,16.81C18.58,16.87 18.75,16.97 18.88,17.11C19.01,17.25 19.12,17.43 19.19,17.64C19.26,17.85 19.3,18.12 19.3,18.43C19.3,18.71 19.27,18.94 19.2,19.14C19.12,19.38 19,19.57 18.85,19.72C18.74,19.83 18.58,19.91 18.39,19.98C18.25,20.02 18.05,20.04 17.8,20.04L16.57,20.04L16.57,16.75L17.76,16.75ZM16.38,16.56L16.38,20.24L17.8,20.24C18.07,20.24 18.29,20.21 18.45,20.16C18.67,20.09 18.85,19.98 18.98,19.86C19.15,19.69 19.29,19.47 19.38,19.2C19.45,18.99 19.49,18.73 19.49,18.43C19.49,18.09 19.45,17.81 19.37,17.58C19.29,17.34 19.17,17.14 19.02,16.98C18.86,16.81 18.67,16.69 18.45,16.63C18.29,16.58 18.06,16.56 17.76,16.56L16.38,16.56L16.38,16.56Z" fill="#ffffff" fill-opacity="1.0" stroke="#00000000" stroke-width="1.0"/>
    <path d="M17.49,17.34C17.84,17.34 17.99,17.36 18.05,17.37C18.17,17.4 18.26,17.44 18.33,17.51C18.41,17.58 18.47,17.68 18.51,17.81C18.55,17.94 18.58,18.14 18.58,18.4C18.58,18.66 18.55,18.86 18.51,19.01C18.47,19.15 18.41,19.24 18.35,19.3C18.29,19.36 18.21,19.4 18.11,19.42C18.03,19.44 17.89,19.45 17.7,19.45L17.27,19.45L17.27,17.34L17.49,17.34ZM17.08,17.15L17.08,19.64L17.7,19.64C17.91,19.64 18.06,19.63 18.15,19.61C18.28,19.58 18.39,19.52 18.48,19.44C18.57,19.36 18.64,19.24 18.69,19.06C18.74,18.9 18.77,18.68 18.77,18.4C18.77,18.12 18.74,17.9 18.69,17.75C18.64,17.59 18.56,17.46 18.46,17.37C18.37,17.28 18.24,17.22 18.09,17.19C17.99,17.16 17.79,17.15 17.49,17.15L17.08,17.15L17.08,17.15Z" fill="#ffffff" fill-opacity="1.0" stroke="#00000000" stroke-width="1.0"/>
    <path d="M20.19,20.14l0,-3.49l2.58,0l0,0.59l-1.88,0l0,0.77l1.75,0l0,0.59l-1.75,0l0,0.94l1.94,0l0,0.59l-2.65,0" fill="#ffffff" fill-opacity="1.0" stroke="#00000000" stroke-width="1.0"/>
    <path d="M22.67,16.75L22.67,17.15L20.8,17.15L20.8,18.11L22.54,18.11L22.54,18.51L20.8,18.51L20.8,19.64L22.74,19.64L22.74,20.04L20.29,20.04L20.29,16.75L22.67,16.75ZM20.09,16.56L20.09,20.24L22.93,20.24L22.93,19.45L20.99,19.45L20.99,18.7L22.73,18.7L22.73,17.92L20.99,17.92L20.99,17.34L22.87,17.34L22.87,16.56L20.09,16.56L20.09,16.56Z" fill="#ffffff" fill-opacity="1.0" stroke="#00000000" stroke-width="1.0"/>
    <path d="M25.48,18.76L25,17.47L24.53,18.76L25.48,18.76ZM26.77,20.14L26.01,20.14L25.7,19.35L24.31,19.35L24.02,20.14L23.28,20.14L24.63,16.65L25.38,16.65L26.77,20.14L26.77,20.14Z" fill="#ffffff" fill-opacity="1.0" stroke="#00000000" stroke-width="1.0"/>
    <path d="M25.31,16.75C25.36,16.86 26.54,19.81 26.63,20.04L26.07,20.04C26.03,19.94 25.77,19.25 25.77,19.25L24.24,19.25C24.24,19.25 23.99,19.94 23.95,20.04L23.41,20.04C23.51,19.81 24.65,16.86 24.69,16.75L25.31,16.75ZM24.56,16.56L23.14,20.24L24.09,20.24C24.09,20.24 24.34,19.55 24.38,19.44L25.64,19.44C25.68,19.55 25.94,20.24 25.94,20.24L26.91,20.24L25.44,16.56L24.56,16.56L24.56,16.56Z" fill="#ffffff" fill-opacity="1.0" stroke="#00000000" stroke-width="1.0"/>
    <path d="M25,17.74C25.1,18.02 25.28,18.5 25.34,18.66L24.66,18.66C24.72,18.5 24.89,18.02 25,17.74ZM24.39,18.85L25.61,18.85L25,17.19L24.39,18.85L24.39,18.85Z" fill="#ffffff" fill-opacity="1.0" stroke="#00000000" stroke-width="1.0"/>
    <path d="M27.36,20.14l0,-3.46l0.7,0l0,2.87l1.75,0l0,0.59l-2.45,0" fill="#ffffff" fill-opacity="1.0" stroke="#00000000" stroke-width="1.0"/>
    <path d="M27.97,16.78L27.97,19.64L29.72,19.64L29.72,20.04L27.46,20.04L27.46,16.78L27.97,16.78ZM27.26,16.59L27.26,20.24L29.91,20.24L29.91,19.45L28.16,19.45L28.16,16.59L27.26,16.59L27.26,16.59Z" fill="#ffffff" fill-opacity="1.0" stroke="#00000000" stroke-width="1.0"/>
</svg>