<?xml version="1.0" encoding="utf-8" standalone="no"?><svg xmlns:android="http://schemas.android.com/apk/res/android" height="48.0" width="48.0" xmlns="http://www.w3.org/2000/svg">
    <path d="M24,24m-24,0a24,24 0,1 1,48 0a24,24 0,1 1,-48 0" fill="#cccccc" fill-opacity="1.0" stroke="#00000000" stroke-width="1.0"/>
    <path d="M24,46C36.15,46 46,36.15 46,24C46,11.85 36.15,2 24,2C11.85,2 2,11.85 2,24C2,36.15 11.85,46 24,46ZM24,48C10.75,48 0,37.25 0,24C0,10.75 10.75,0 24,0C37.25,0 48,10.75 48,24C48,37.25 37.25,48 24,48Z" fill="#cccccc" fill-opacity="1.0" stroke="#00000000" stroke-width="1.0"/>
    <path d="M23.5,18.24C23.5,18.31 23.43,18.38 23.36,18.38C22.09,18.34 20.88,18.21 19.74,18C19.68,18 19.61,17.9 19.64,17.83C20.45,14.95 21.79,12.93 23.33,12.45C23.43,12.41 23.5,12.48 23.5,12.58L23.5,18.24ZM24.64,23.49C24.57,23.49 24.5,23.42 24.5,23.35L24.5,19.54C24.5,19.47 24.57,19.41 24.64,19.41C26.01,19.37 27.32,19.23 28.52,18.99C28.59,18.99 28.66,19.03 28.66,19.1C28.96,20.4 29.13,21.84 29.16,23.35C29.16,23.42 29.09,23.49 29.03,23.49L24.64,23.49ZM23.5,23.35C23.5,23.42 23.43,23.49 23.36,23.49L18.97,23.49C18.91,23.49 18.84,23.42 18.84,23.35C18.91,21.84 19.07,20.4 19.34,19.1C19.34,19.03 19.41,18.99 19.48,18.99C20.68,19.23 21.99,19.37 23.36,19.41C23.43,19.41 23.5,19.47 23.5,19.54L23.5,23.35ZM24.5,12.58C24.5,12.48 24.57,12.41 24.67,12.45C26.21,12.93 27.55,14.95 28.36,17.83C28.39,17.9 28.32,18 28.26,18C27.12,18.21 25.91,18.34 24.64,18.38C24.57,18.38 24.5,18.31 24.5,18.24L24.5,12.58ZM30.3,23.49C30.23,23.49 30.17,23.42 30.2,23.35C30.17,21.74 30,20.23 29.7,18.86C29.7,18.79 29.73,18.75 29.8,18.72C31.31,18.31 32.61,17.76 33.68,17.11C33.75,17.07 33.82,17.07 33.85,17.14C35.03,18.93 35.76,21.05 35.9,23.35C35.9,23.42 35.83,23.49 35.76,23.49L30.3,23.49ZM30.17,24.65C30.17,24.58 30.23,24.51 30.3,24.51L35.73,24.51C35.8,24.51 35.86,24.58 35.86,24.65C35.76,26.95 35.03,29.07 33.82,30.86C33.79,30.93 33.72,30.93 33.65,30.89C32.58,30.24 31.27,29.69 29.76,29.28C29.7,29.28 29.66,29.21 29.66,29.14C29.97,27.77 30.13,26.26 30.17,24.65ZM17.7,24.51C17.77,24.51 17.83,24.58 17.83,24.65C17.87,26.26 18.03,27.77 18.34,29.14C18.34,29.21 18.3,29.25 18.24,29.28C16.73,29.69 15.42,30.24 14.35,30.89C14.28,30.93 14.21,30.93 14.18,30.86C12.97,29.07 12.24,26.95 12.1,24.65C12.1,24.58 12.17,24.51 12.24,24.51L17.7,24.51ZM17.83,23.35C17.83,23.42 17.77,23.49 17.73,23.49L12.27,23.49C12.2,23.49 12.14,23.42 12.14,23.35C12.24,21.05 12.97,18.93 14.18,17.14C14.21,17.07 14.28,17.07 14.35,17.11C15.42,17.76 16.73,18.31 18.24,18.72C18.3,18.72 18.34,18.79 18.34,18.86C18.03,20.23 17.87,21.74 17.83,23.35ZM18.64,17.59C18.6,17.66 18.54,17.73 18.47,17.69C17.13,17.35 15.92,16.87 14.99,16.29C14.92,16.25 14.88,16.15 14.95,16.08C16.59,14.13 18.84,12.72 21.42,12.1C21.55,12.1 21.62,12.24 21.52,12.34C20.28,13.41 19.27,15.26 18.64,17.59ZM29.53,17.69C29.46,17.73 29.4,17.66 29.4,17.62C28.73,15.29 27.72,13.44 26.51,12.38C26.41,12.27 26.48,12.1 26.61,12.14C29.16,12.72 31.41,14.13 33.05,16.08C33.12,16.15 33.08,16.25 33.01,16.29C32.08,16.87 30.87,17.35 29.53,17.69ZM23.36,24.51C23.43,24.51 23.5,24.58 23.5,24.65L23.5,28.46C23.5,28.53 23.43,28.59 23.36,28.59C21.99,28.63 20.68,28.77 19.48,29.01C19.41,29.01 19.34,28.97 19.34,28.9C19.04,27.6 18.87,26.16 18.84,24.65C18.84,24.58 18.91,24.51 18.97,24.51L23.36,24.51ZM29.36,30.41C29.4,30.34 29.46,30.27 29.5,30.34C30.84,30.69 32.04,31.17 32.98,31.75C33.05,31.78 33.08,31.89 33.01,31.95C31.37,33.91 29.13,35.31 26.58,35.9C26.45,35.9 26.38,35.76 26.48,35.66C27.72,34.59 28.73,32.74 29.36,30.41ZM18.47,30.31C18.54,30.27 18.6,30.34 18.6,30.38C19.27,32.71 20.28,34.56 21.49,35.62C21.59,35.73 21.52,35.9 21.39,35.86C18.84,35.28 16.59,33.87 14.95,31.92C14.88,31.85 14.92,31.75 14.99,31.71C15.92,31.13 17.13,30.65 18.47,30.31ZM24.5,24.65C24.5,24.58 24.57,24.51 24.64,24.51L29.03,24.51C29.09,24.51 29.16,24.58 29.16,24.65C29.09,26.16 28.93,27.6 28.66,28.9C28.66,28.97 28.59,29.01 28.52,29.01C27.32,28.77 26.01,28.63 24.64,28.59C24.57,28.59 24.5,28.53 24.5,28.46L24.5,24.65ZM23.5,35.42C23.5,35.52 23.43,35.59 23.33,35.55C21.79,35.07 20.45,33.02 19.64,30.17C19.61,30.1 19.68,30 19.74,30C20.88,29.79 22.09,29.66 23.36,29.62C23.43,29.62 23.5,29.69 23.5,29.76L23.5,35.42ZM24.5,29.76C24.5,29.69 24.57,29.62 24.64,29.62C25.91,29.66 27.12,29.79 28.26,30C28.32,30 28.39,30.1 28.36,30.17C27.55,33.05 26.21,35.07 24.67,35.55C24.57,35.59 24.5,35.52 24.5,35.42L24.5,29.76Z" fill="#ffffff" fill-opacity="1.0" stroke="#00000000" stroke-width="1.0"/>
</svg>