<?xml version="1.0" encoding="utf-8" standalone="no"?><svg xmlns:android="http://schemas.android.com/apk/res/android" height="48.0" width="48.0" xmlns="http://www.w3.org/2000/svg">
    <path d="M0 0L48 0 48 48 0 48Z" fill="#cccccc" fill-opacity="1.0"/>
    <path d="M32.33397 22.8861l-0.13003 -6.7702 -2.50832 0 0 1.77428c0.17482 0.17014 0.28479 0.40713 0.28479 0.6702 0 0.51644 -0.41983 0.93627 -0.93627 0.93627 -0.51577 0 -0.93628 -0.41983 -0.93628 -0.93627 0 -0.26307 0.10964 -0.50006 0.28513 -0.6702l0 -1.77428 -9.04587 0 0 1.77428c0.17516 0.17014 0.28513 0.40713 0.28513 0.6702 0 0.51644 -0.41984 0.93627 -0.93628 0.93627 -0.5161 0 -0.93594 -0.41983 -0.93594 -0.93627 0 -0.26307 0.10964 -0.50006 0.2848 -0.6702l0 -1.77428 -2.50832 0 -0.34664 18.02823 12.60713 0c-1.16558 -1.197 -1.8876 -2.82888 -1.8876 -4.6279 -0.00033 -3.58866 2.86331 -6.51448 6.42457 -6.63013l0 0zM23.87039 10.32911c-3.03713 0 -5.50835 2.47089 -5.50835 5.50802l0 2.22252c-0.16145 0.10797 -0.26841 0.29181 -0.26841 0.50073 0 0.33192 0.27042 0.60234 0.60234 0.60234 0.33193 0 0.60235 -0.27042 0.60235 -0.60234 0 -0.20892 -0.1063 -0.39276 -0.26842 -0.50073l0 -2.22252c0 -2.66877 2.17139 -4.84016 4.84016 -4.84016 2.66876 0 4.84015 2.17139 4.84015 4.84016l0 2.22252c-0.16179 0.10797 -0.26842 0.29181 -0.26842 0.50073 0 0.33192 0.27042 0.60234 0.60201 0.60234 0.33226 0 0.60268 -0.27042 0.60268 -0.60234 0 -0.20892 -0.10696 -0.39276 -0.26841 -0.50073l0 -2.22252c0.00033 -3.03747 -2.47055 -5.50802 -5.50768 -5.50802l0 0zm8.68018 13.76268c-2.99133 0 -5.42478 2.43311 -5.42478 5.42444 0 2.99134 2.43311 5.42445 5.42478 5.42445 2.99067 0 5.42411 -2.43311 5.42411 -5.42445 0 -2.99133 -2.43311 -5.42444 -5.42411 -5.42444l0 0zm2.25328 3.72437l-2.18442 3.79391c-0.0067 0.01705 -0.01905 0.03142 -0.02741 0.0478l-0.0097 0.01671c-0.0013 0.003 -0.004 0.0044 -0.006 0.007 -0.01838 0.03008 -0.03276 0.06217 -0.05816 0.08791 -0.01371 0.01337 -0.03075 0.01872 -0.0458 0.03009 -0.01036 0.0087 -0.02206 0.01537 -0.03409 0.02273 -0.03577 0.02306 -0.07187 0.04278 -0.11231 0.05482 -0.02106 0.007 -0.04246 0.0087 -0.06452 0.0127 -0.03142 0.0047 -0.06217 0.0084 -0.09392 0.0067 -0.03343 -0.0013 -0.06452 -0.0097 -0.09728 -0.01905 -0.02139 -0.0067 -0.04178 -0.01137 -0.06217 -0.02106 -0.01437 -0.0067 -0.03075 -0.0067 -0.04512 -0.01504 -0.02741 -0.01571 -0.0458 -0.04011 -0.06853 -0.0605 -0.0053 -0.005 -0.01237 -0.007 -0.01772 -0.01204l-0.03275 -0.03209c-0.0053 -0.0067 -0.01304 -0.01136 -0.01839 -0.01838l-1.45639 -1.45706c-0.17749 -0.17683 -0.17682 -0.46396 0 -0.64112 0.17683 -0.17683 0.46363 -0.17683 0.64112 0.00034l1.08369 1.08402 1.92336 -3.34065c0.12534 -0.21727 0.40212 -0.29181 0.61905 -0.16679 0.21761 0.12468 0.29215 0.40178 0.16747 0.61905l0 0z" fill="#ffffff" fill-opacity="1.0"/>
</svg>