<?xml version="1.0" encoding="utf-8" standalone="no"?><svg xmlns:android="http://schemas.android.com/apk/res/android" height="120.0" width="120.0" xmlns="http://www.w3.org/2000/svg">
    <path android:fillType="evenOdd" d="M0,0h120v120h-120z" fill="#cccccc" fill-opacity="1.0" stroke="#00000000" stroke-width="1.0"/>
    <path android:fillType="evenOdd" d="M48.11,38.56L39.75,38.56C39.2,38.56 38.75,38.12 38.75,37.56L38.75,24.4C38.75,23.85 39.2,23.4 39.75,23.4L80.44,23.4C80.99,23.4 81.44,23.85 81.44,24.4L81.44,37.56C81.44,38.12 80.99,38.56 80.44,38.56L72.07,38.56L72.07,44.74L88.74,44.74L93.42,52.23L93.42,59.34L93.42,59.34C93.37,61.73 91.42,63.65 89.02,63.65C86.62,63.65 84.67,61.73 84.62,59.34L84.61,59.34C84.57,58.61 83.96,58.03 83.21,58.03C82.47,58.03 81.86,58.61 81.81,59.34L81.81,59.34C81.76,61.73 79.81,63.65 77.41,63.65C75.01,63.65 73.06,61.73 73.01,59.34L73.01,59.34C72.96,58.61 72.35,58.03 71.61,58.03C70.86,58.03 70.25,58.61 70.21,59.34L70.2,59.34C70.15,61.73 68.2,63.65 65.8,63.65C63.41,63.65 61.45,61.73 61.41,59.34L61.4,59.34C61.35,58.61 60.74,58.03 60,58.03C59.26,58.03 58.65,58.61 58.6,59.34L58.59,59.34C58.55,61.73 56.59,63.65 54.2,63.65C51.8,63.65 49.85,61.73 49.8,59.34L49.79,59.34C49.75,58.61 49.14,58.03 48.39,58.03C47.65,58.03 47.04,58.61 46.99,59.34L46.99,59.34C46.94,61.73 44.99,63.65 42.59,63.65C40.19,63.65 38.24,61.73 38.19,59.34L38.19,59.34C38.14,58.61 37.53,58.03 36.79,58.03C36.04,58.03 35.43,58.61 35.39,59.34L35.38,59.34C35.33,61.73 33.38,63.65 30.98,63.65C28.58,63.65 26.63,61.73 26.58,59.34L26.58,59.34L26.58,52.23L31.26,44.74L48.11,44.74L48.11,38.56ZM50.73,38.56L50.73,44.74L69.45,44.74L69.45,38.56L50.73,38.56ZM35.2,65.32L35.2,88.74C35.2,89.46 35.78,90.05 36.51,90.05L83.31,90.05C84.03,90.05 84.62,89.46 84.62,88.74L84.62,65.2C85.9,66 87.4,66.46 89.02,66.46C89.69,66.46 90.35,66.38 90.98,66.23L90.98,94.35C90.98,95.49 90.06,96.41 88.92,96.41L30.89,96.41C29.75,96.41 28.83,95.49 28.83,94.35L28.83,66.18C29.52,66.36 30.24,66.46 30.98,66.46C32.52,66.46 33.96,66.04 35.2,65.32Z" fill="#ffffff" fill-opacity="1.0" stroke="#00000000" stroke-width="1.0"/>
</svg>