<svg
    xmlns="http://www.w3.org/2000/svg"
    viewBox="0 0 300 476"
    id="vector">
    <path
        id="path_15"
        d="M 18 0 L 282 0 C 285.159 0 288.264 0.832 291 2.412 C 293.736 3.991 296.009 6.264 297.588 9 C 299.168 11.736 300 14.841 300 18 L 300 457.75 C 300 460.909 299.168 464.014 297.588 466.75 C 296.009 469.486 293.736 471.759 291 473.338 C 288.264 474.918 285.159 475.75 282 475.75 L 18 475.75 C 13.228 475.75 8.646 473.852 5.272 470.478 C 1.898 467.104 0 462.522 0 457.75 L 0 18 C 0 13.228 1.898 8.646 5.272 5.272 C 8.646 1.898 13.228 0 18 0 Z"
        fill="#263238"
        stroke="#00000000"
        stroke-width="1"
        fill-rule="evenodd"/>
    <path
        id="path_16"
        d="M 251.181 458.336 C 244.317 458.336 237.758 456.253 232.206 452.312 C 226.654 456.253 220.096 458.336 213.23 458.336 C 195.145 458.336 180.431 443.668 180.431 425.637 C 180.431 407.607 195.145 392.938 213.23 392.938 C 220.096 392.938 226.654 395.022 232.206 398.963 C 237.758 395.022 244.317 392.938 251.181 392.938 C 269.266 392.938 283.98 407.607 283.98 425.637 C 283.98 443.668 269.266 458.336 251.181 458.336"
        fill="#ffffff"
        stroke="#00000000"
        stroke-width="1"
        fill-rule="evenodd"/>
    <path
        id="path_17"
        d="M 218.741 449.669 L 245.608 449.669 L 245.608 401.538 L 218.741 401.538 Z"
        fill="#f16121"
        stroke="#00000000"
        stroke-width="1"
        fill-rule="evenodd"/>
    <path
        id="path_18"
        d="M 220.447 425.604 C 220.447 415.841 225.034 407.144 232.174 401.54 C 226.952 397.441 220.361 394.995 213.199 394.995 C 196.243 394.995 182.495 408.699 182.495 425.604 C 182.495 442.51 196.243 456.214 213.199 456.214 C 220.361 456.214 226.952 453.77 232.174 449.669 C 225.034 444.064 220.447 435.37 220.447 425.604"
        fill="#ed1b23"
        stroke="#00000000"
        stroke-width="1"
        fill-rule="evenodd"/>
    <path
        id="path_19"
        d="M 281.854 425.604 C 281.854 442.51 268.108 456.214 251.15 456.214 C 243.988 456.214 237.397 453.77 232.174 449.669 C 239.317 444.064 243.902 435.37 243.902 425.604 C 243.902 415.841 239.317 407.144 232.174 401.54 C 237.397 397.441 243.988 394.995 251.15 394.995 C 268.108 394.995 281.854 408.699 281.854 425.604"
        fill="#f99e1a"
        stroke="#00000000"
        stroke-width="1"
        fill-rule="evenodd"/>
    <path
        id="path_20"
        d="M 22.447 459.275 C 21.404 459.275 20.469 459.053 19.641 458.607 C 18.813 458.161 18.166 457.542 17.699 456.751 C 17.233 455.96 17 455.062 17 454.057 C 17 453.053 17.233 452.155 17.699 451.363 C 18.166 450.572 18.813 449.954 19.641 449.508 C 20.469 449.062 21.404 448.839 22.447 448.839 C 23.49 448.839 24.423 449.062 25.245 449.508 C 26.067 449.954 26.711 450.572 27.177 451.363 C 27.643 452.155 27.876 453.053 27.876 454.057 C 27.876 455.062 27.643 455.96 27.177 456.751 C 26.711 457.542 26.067 458.161 25.245 458.607 C 24.423 459.053 23.49 459.275 22.447 459.275 Z M 22.447 456.864 C 23.183 456.864 23.788 456.61 24.26 456.101 C 24.732 455.593 24.968 454.911 24.968 454.057 C 24.968 453.203 24.732 452.522 24.26 452.013 C 23.788 451.505 23.183 451.25 22.447 451.25 C 21.711 451.25 21.104 451.505 20.625 452.013 C 20.147 452.522 19.908 453.203 19.908 454.057 C 19.908 454.911 20.147 455.593 20.625 456.101 C 21.104 456.61 21.711 456.864 22.447 456.864 Z"
        fill="#fafbfc"
        stroke="#00000000"
        stroke-width="1"/>
    <path
        id="path_21"
        d="M 35.808 448.839 C 37.035 448.839 38.025 449.216 38.78 449.969 C 39.534 450.723 39.912 451.841 39.912 453.323 L 39.912 459.125 L 37.041 459.125 L 37.041 453.775 C 37.041 452.971 36.869 452.371 36.526 451.976 C 36.182 451.58 35.685 451.382 35.035 451.382 C 34.311 451.382 33.734 451.611 33.305 452.07 C 32.876 452.528 32.661 453.21 32.661 454.114 L 32.661 459.125 L 29.79 459.125 L 29.79 448.99 L 32.532 448.99 L 32.532 450.177 C 32.912 449.75 33.385 449.42 33.949 449.188 C 34.514 448.955 35.133 448.839 35.808 448.839 Z"
        fill="#fafbfc"
        stroke="#00000000"
        stroke-width="1"/>
    <path
        id="path_22"
        d="M 42.507 445.147 L 45.378 445.147 L 45.378 459.125 L 42.507 459.125 Z"
        fill="#fafbfc"
        stroke="#00000000"
        stroke-width="1"/>
    <path
        id="path_23"
        d="M 48.046 448.99 L 50.917 448.99 L 50.917 459.125 L 48.046 459.125 Z"
        fill="#fafbfc"
        stroke="#00000000"
        stroke-width="1"/>
    <path
        id="path_24"
        d="M 49.481 447.577 C 48.954 447.577 48.524 447.42 48.193 447.106 C 47.862 446.792 47.696 446.403 47.696 445.938 C 47.696 445.473 47.862 445.084 48.193 444.77 C 48.524 444.456 48.954 444.299 49.481 444.299 C 50.009 444.299 50.438 444.45 50.769 444.751 C 51.101 445.053 51.266 445.429 51.266 445.882 C 51.266 446.371 51.101 446.776 50.769 447.097 C 50.438 447.417 50.009 447.577 49.481 447.577 Z"
        fill="#fafbfc"
        stroke="#00000000"
        stroke-width="1"/>
    <path
        id="path_25"
        d="M 59.603 448.839 C 60.83 448.839 61.82 449.216 62.575 449.969 C 63.33 450.723 63.707 451.841 63.707 453.323 L 63.707 459.125 L 60.836 459.125 L 60.836 453.775 C 60.836 452.971 60.664 452.371 60.321 451.976 C 59.977 451.58 59.48 451.382 58.83 451.382 C 58.106 451.382 57.53 451.611 57.1 452.07 C 56.671 452.528 56.456 453.21 56.456 454.114 L 56.456 459.125 L 53.585 459.125 L 53.585 448.99 L 56.327 448.99 L 56.327 450.177 C 56.708 449.75 57.18 449.42 57.744 449.188 C 58.309 448.955 58.928 448.839 59.603 448.839 Z"
        fill="#fafbfc"
        stroke="#00000000"
        stroke-width="1"/>
    <path
        id="path_26"
        d="M 76 454.095 C 76 454.133 75.982 454.396 75.945 454.886 L 68.455 454.886 C 68.59 455.514 68.909 456.01 69.412 456.374 C 69.915 456.739 70.54 456.921 71.289 456.921 C 71.804 456.921 72.261 456.842 72.66 456.685 C 73.059 456.528 73.43 456.28 73.773 455.941 L 75.301 457.637 C 74.368 458.729 73.006 459.275 71.215 459.275 C 70.099 459.275 69.111 459.053 68.252 458.607 C 67.394 458.161 66.731 457.542 66.265 456.751 C 65.799 455.96 65.566 455.062 65.566 454.057 C 65.566 453.065 65.796 452.17 66.256 451.373 C 66.716 450.575 67.348 449.954 68.151 449.508 C 68.955 449.062 69.853 448.839 70.847 448.839 C 71.816 448.839 72.694 449.053 73.479 449.48 C 74.264 449.907 74.88 450.519 75.328 451.316 C 75.776 452.114 76 453.04 76 454.095 Z M 70.866 451.062 C 70.215 451.062 69.669 451.25 69.228 451.627 C 68.786 452.004 68.516 452.519 68.418 453.172 L 73.295 453.172 C 73.197 452.531 72.927 452.02 72.485 451.637 C 72.043 451.254 71.504 451.062 70.866 451.062 Z"
        fill="#fafbfc"
        stroke="#00000000"
        stroke-width="1"/>
    <path
        id="path_27"
        d="M 115.976 432.574 L 111.424 432.574 L 111.424 421.76 C 109.522 423.19 107.158 424.038 104.597 424.038 C 98.316 424.038 93.217 418.938 93.217 412.656 C 93.217 406.375 98.316 401.275 104.597 401.275 C 107.316 401.275 109.815 402.232 111.773 403.826 L 111.993 401.844 L 115.976 401.844 L 115.976 412.088 L 115.962 412.088 C 115.971 412.276 115.976 412.466 115.976 412.656 L 115.976 432.574 Z M 104.881 420.054 C 108.806 420.054 111.993 416.74 111.993 412.656 C 111.993 408.574 108.806 405.259 104.881 405.259 C 100.956 405.259 97.769 408.574 97.769 412.656 C 97.769 416.74 100.956 420.054 104.881 420.054 Z"
        fill="#fafbfc"
        stroke="#00000000"
        stroke-width="1"
        fill-rule="evenodd"/>
    <path
        id="path_28"
        d="M 20.39 423.469 L 16.408 423.469 L 16.408 413.226 L 16.422 413.226 C 16.412 413.037 16.408 412.847 16.408 412.656 L 16.408 392.739 L 20.959 392.739 L 20.959 403.553 C 22.862 402.123 25.226 401.275 27.787 401.275 C 34.067 401.275 39.166 406.375 39.166 412.656 C 39.166 418.938 34.067 424.038 27.787 424.038 C 25.067 424.038 22.569 423.082 20.611 421.487 L 20.39 423.469 Z M 27.502 405.259 C 23.577 405.259 20.39 408.574 20.39 412.656 C 20.39 416.74 23.577 420.054 27.502 420.054 C 31.428 420.054 34.614 416.74 34.614 412.656 C 34.614 408.574 31.428 405.259 27.502 405.259 Z"
        fill="#fafbfc"
        stroke="#00000000"
        stroke-width="1"
        fill-rule="evenodd"/>
    <path
        id="path_29"
        d="M 59.649 401.844 L 64.2 401.844 L 64.2 413.51 C 64.2 419.321 59.484 424.038 53.675 424.038 C 47.865 424.038 43.149 419.321 43.149 413.51 L 43.149 401.844 L 47.701 401.844 L 47.701 413.51 C 47.701 417.122 50.378 420.054 53.675 420.054 C 56.972 420.054 59.649 417.122 59.649 413.51 L 59.649 401.844 Z"
        fill="#fafbfc"
        stroke="#00000000"
        stroke-width="1"
        fill-rule="evenodd"/>
    <path
        id="path_30"
        d="M 72.735 423.469 L 68.183 423.469 L 68.183 411.803 C 68.183 405.992 72.9 401.275 78.709 401.275 C 84.518 401.275 89.235 405.992 89.235 411.803 L 89.235 423.469 L 84.683 423.469 L 84.683 411.803 C 84.683 408.191 82.006 405.259 78.709 405.259 C 75.412 405.259 72.735 408.191 72.735 411.803 L 72.735 423.469 Z"
        fill="#fafbfc"
        stroke="#00000000"
        stroke-width="1"
        fill-rule="evenodd"/>
    <path
        id="path_31"
        d="M 215.366 273.05 L 215.366 207.703 C 231.425 210.341 243.329 223.945 243.329 240.355 C 243.329 256.615 231.235 270.504 215.366 273.05 Z"
        fill="#f5cc44"
        stroke="#00000000"
        stroke-width="1"/>
    <path
        id="path_32"
        d="M 226.057 269.355 C 222.153 271.512 217.77 272.909 213.106 273.332 L 182.237 273.332 L 182.237 159.915 C 198.145 169.666 209.29 186.372 211.244 205.918 L 211.378 207.258 L 212.72 207.375 C 217.552 207.795 222.063 209.194 226.057 211.369 L 226.057 269.355 Z"
        fill="#e13030"
        stroke="#00000000"
        stroke-width="1"/>
    <path
        id="path_33"
        d="M 199.353 273.357 L 166.214 273.357 L 166.214 153.002 C 179.622 156.674 191.237 164.699 199.353 175.496 L 199.353 273.357 Z"
        fill="#993233"
        stroke="#00000000"
        stroke-width="1"/>
    <path
        id="path_34"
        d="M 182.262 273.332 L 149.123 273.332 L 149.123 150.764 C 149.301 150.763 149.479 150.762 149.657 150.762 C 161.594 150.762 172.776 154.109 182.262 159.93 L 182.262 273.332 Z"
        fill="#1d5c84"
        stroke="#00000000"
        stroke-width="1"/>
    <path
        id="path_35"
        d="M 166.215 273.332 L 133.076 273.332 L 133.076 153.009 C 138.368 151.542 143.925 150.762 149.633 150.762 C 155.369 150.762 160.931 151.535 166.215 152.984 L 166.215 273.332 Z"
        fill="#2872bc"
        stroke="#00000000"
        stroke-width="1"/>
    <path
        id="path_36"
        d="M 149.148 273.332 L 116.009 273.332 L 116.009 160.694 C 125.631 154.468 137.041 150.863 149.148 150.764 L 149.148 273.332 Z"
        fill="#3394d7"
        stroke="#00000000"
        stroke-width="1"/>
    <path
        id="path_37"
        d="M 133.125 273.332 L 99.987 273.332 L 99.987 175.683 C 108.139 164.745 119.792 156.692 133.125 153.002 L 133.125 273.332 Z"
        fill="#3db8ad"
        stroke="#00000000"
        stroke-width="1"/>
    <path
        id="path_38"
        d="M 116.034 273.332 L 92.548 273.332 C 89.197 273.079 85.962 272.404 82.896 271.362 L 82.896 196.957 C 84.939 196.279 87.062 195.757 89.251 195.408 L 90.25 195.248 L 90.547 194.281 C 94.891 180.169 104.085 168.403 116.034 160.678 L 116.034 273.332 Z"
        fill="#89cc53"
        stroke="#00000000"
        stroke-width="1"/>
    <path
        id="path_39"
        d="M 100.012 273.332 L 92.548 273.332 C 82.461 272.571 73.433 267.988 66.873 261.081 L 66.873 207.04 C 72.668 201.02 80.422 196.818 89.251 195.408 L 90.25 195.248 L 90.547 194.281 C 92.647 187.459 95.881 181.184 100.012 175.65 L 100.012 273.332 Z"
        fill="#62b64f"
        stroke="#00000000"
        stroke-width="1"/>
    <path
        id="path_40"
        d="M 82.921 271.357 C 67.266 266.049 56 251.176 56 234.051 C 56 216.86 67.071 202.182 82.921 196.934 L 82.921 271.357 Z"
        fill="#238647"
        stroke="#00000000"
        stroke-width="1"/>
    <path
        id="path_41"
        d="M 232.482 264.749 C 227.806 269.024 221.906 272 215.366 273.05 L 215.366 207.703 C 221.946 208.784 227.829 211.706 232.482 215.909 L 232.482 264.749 Z"
        fill="#f28825"
        stroke="#00000000"
        stroke-width="1"/>
    <path
        id="path_42"
        d="M 84.206 271.698 C 77.599 269.667 71.728 265.946 67.09 261.063 L 67.09 207.022 C 71.703 202.23 77.557 198.59 84.206 196.593 L 84.206 271.698 Z"
        fill="#2f9b47"
        stroke="#00000000"
        stroke-width="1"/>
</svg>
